<?xml version="1.0" encoding="utf-8"?>
<!-- Generator: Adobe Illustrator 22.1.0, SVG Export Plug-In . SVG Version: 6.00 Build 0)  -->
<svg version="1.1" id="Layer_1" xmlns="http://www.w3.org/2000/svg" xmlns:xlink="http://www.w3.org/1999/xlink" x="0px" y="0px"
	 viewBox="0 0 203.4 203.4" style="enable-background:new 0 0 203.4 203.4;" xml:space="preserve">
<style type="text/css">
	.st0{fill:none;stroke:#872222;stroke-width:0.2;stroke-linecap:round;stroke-linejoin:round;}
	.st1{fill:none;stroke:#BCBEC0;stroke-width:0.2;stroke-linecap:round;stroke-linejoin:round;}
	.st2{fill:none;stroke:#872222;stroke-width:0.2;stroke-linecap:round;stroke-linejoin:round;stroke-dasharray:0.32;}
	.st3{fill:#9A2E22;stroke:#872222;stroke-width:0.5;}
</style>
<title>car</title>
<polyline class="st0" points="2.3,158.9 2.3,160 1.2,161.1 1.2,162.2 1.2,163.3 0.1,164.4 0.1,166.6 1.2,166.6 1.2,167.8 1.2,168.9 
	1.2,170 0.1,170 1.2,171.1 2.3,171.1 3.4,170 4.5,170 5.7,170 9,168.9 9,167.8 10.1,167.8 11.2,168.9 12.3,168.9 13.4,168.9 
	14.5,168.9 14.5,170 15.6,170 15.6,171.1 15.6,172.2 16.8,174.4 17.9,174.4 17.9,175.5 15.6,178.9 14.5,180 13.4,180 12.3,180 
	11.2,182.2 10.1,183.3 10.1,184.4 10.1,185.5 11.2,186.6 10.1,186.6 10.1,187.8 10.1,188.9 9,188.9 10.1,190 11.2,190 12.3,190 
	13.4,190 13.4,191.1 13.4,192.2 14.5,192.2 15.6,192.2 16.8,193.3 17.9,193.3 17.9,194.4 17.9,195.5 17.9,196.6 16.8,198.9 
	16.8,200 16.8,201.1 17.9,202.2 17.9,203.3 17.9,203.3 "/>
<polyline class="st1" points="0.1,156.7 1.2,156.7 2.3,157.8 2.3,158.9 2.3,158.9 "/>
<polyline class="st0" points="71.2,142.2 72.3,144.4 72.3,145.6 71.2,146.7 71.2,147.8 70,147.8 70,150 68.9,151.1 68.9,152.2 
	67.8,153.3 67.8,154.4 66.7,154.4 66.7,155.6 65.6,156.7 65.6,157.8 64.5,157.8 64.5,158.9 64.5,160 64.5,161.1 64.5,163.3 
	64.5,164.4 64.5,165.6 64.5,166.6 64.5,167.8 63.4,171.1 62.3,172.2 62.3,173.3 62.3,174.4 62.3,175.5 62.3,176.6 62.3,177.8 
	62.3,178.9 62.3,180 63.4,181.1 63.4,182.2 62.3,182.2 62.3,183.3 61.2,183.3 61.2,184.4 61.2,185.5 60,186.6 60,187.8 60,188.9 
	60,190 60,191.1 60,192.2 60,193.3 60,194.4 58.9,194.4 57.8,195.5 57.8,196.6 55.6,198.9 54.5,200 53.4,200 52.3,201.1 50.1,202.2 
	49,203.3 47.8,203.3 "/>
<polyline class="st0" points="2.3,158.9 6.8,158.9 7.9,158.9 13.4,158.9 15.6,158.9 17.9,158.9 19,158.9 21.2,158.9 21.2,160 
	22.3,160 23.4,161.1 24.5,161.1 25.6,161.1 26.8,160 27.9,161.1 30.1,161.1 31.2,161.1 32.3,162.2 33.4,162.2 34.5,162.2 
	35.6,163.3 36.7,164.4 37.8,164.4 37.8,165.6 39,164.4 39,163.3 39,162.2 39,160 39,158.9 40.1,158.9 40.1,157.8 "/>
<polyline class="st1" points="40.1,157.8 41.2,156.7 41.2,155.6 42.3,153.3 43.4,152.2 43.4,151.1 44.5,150 43.4,150 43.4,148.9 
	43.4,146.7 43.4,145.6 44.5,145.6 44.5,144.4 44.5,143.3 44.5,142.2 45.6,142.2 45.6,141.1 46.7,141.1 49,141.1 50.1,141.1 
	52.3,141.1 54.5,140 55.6,140 56.7,138.9 57.8,140 58.9,140 60,140 61.2,140 61.2,141.1 62.3,141.1 64.5,141.1 65.6,141.1 
	65.6,142.2 66.7,142.2 66.7,141.1 68.9,140 70,140 70,141.1 71.2,141.1 71.2,142.2 71.2,142.2 "/>
<polyline class="st1" points="71.2,142.2 71.2,141.1 71.2,140 71.2,138.9 71.2,136.7 72.3,135.6 72.3,134.4 71.2,133.3 71.2,132.2 
	70,132.2 70,131.1 71.2,131.1 72.3,131.1 73.4,131.1 73.4,130 74.5,128.9 74.5,127.8 75.6,126.7 76.7,125.6 76.7,124.5 77.8,124.5 
	77.8,123.3 78.9,123.3 78.9,122.2 82.3,121.1 83.4,121.1 84.5,121.1 85.6,121.1 86.7,121.1 87.8,121.1 87.8,122.2 88.9,123.3 
	90,123.3 92.2,124.5 93.4,125.6 95.6,127.8 95.6,128.9 96.7,130 98.9,130 100,130 101.1,130 102.2,130 103.3,130 103.3,131.1 
	104.5,131.1 105.6,132.2 108.9,132.2 110,132.2 111.1,132.2 112.2,132.2 113.3,132.2 115.6,132.2 116.7,132.2 116.7,133.3 
	117.8,133.3 118.9,133.3 120,133.3 121.1,133.3 122.2,133.3 122.2,132.2 122.2,131.1 123.3,130 123.3,128.9 124.4,128.9 
	124.4,127.8 125.6,126.7 126.7,126.7 126.7,124.5 127.8,124.5 127.8,125.6 128.9,125.6 130,126.7 131.1,126.7 132.2,127.8 
	133.3,127.8 134.4,126.7 135.6,125.6 138.9,124.5 140,124.5 142.2,123.3 143.3,123.3 144.4,123.3 145.5,122.2 146.6,122.2 
	145.5,122.2 146.6,121.1 147.8,121.1 148.9,122.2 150,123.3 151.1,123.3 152.2,123.3 153.3,122.2 154.4,122.2 155.5,122.2 
	156.6,122.2 157.8,122.2 158.9,121.1 158.9,120 157.8,120 158.9,118.9 158.9,117.8 161.1,117.8 162.2,117.8 162.2,118.9 
	163.3,118.9 164.4,118.9 165.5,120 167.7,120 168.9,118.9 170,118.9 172.2,120 173.3,121.1 173.3,122.2 175.5,121.1 176.6,121.1 
	177.7,121.1 178.8,122.2 178.8,121.1 178.8,120 179.9,120 181.1,120 182.2,120 184.4,120 185.5,121.1 185.5,122.2 "/>
<polyline class="st0" points="185.5,122.2 186.6,123.3 188.8,123.3 189.9,124.5 189.9,125.6 189.9,126.7 191.1,127.8 192.2,127.8 
	193.3,128.9 194.4,128.9 195.5,130 197.7,131.1 198.8,131.1 198.8,130 199.9,130 201.1,130 201.1,128.9 202.2,128.9 202.2,127.8 
	203.3,127.8 203.3,128.9 203.3,128.9 "/>
<polyline class="st1" points="126.7,45.6 126.7,46.7 127.8,47.8 127.8,49 128.9,49 132.2,52.3 134.4,56.7 136.7,60.1 136.7,62.3 
	136.7,63.4 135.6,63.4 136.7,65.6 136.7,67.8 135.6,68.9 134.4,68.9 133.3,71.2 134.4,71.2 135.6,71.2 135.6,72.3 134.4,73.4 
	134.4,74.5 135.6,74.5 137.8,74.5 138.9,74.5 140,74.5 141.1,74.5 142.2,74.5 143.3,74.5 144.4,76.7 143.3,76.7 143.3,77.8 
	142.2,78.9 143.3,78.9 143.3,80.1 144.4,80.1 145.5,80.1 146.6,81.2 148.9,81.2 150,81.2 151.1,81.2 152.2,81.2 153.3,82.3 
	153.3,83.4 154.4,84.5 154.4,85.6 155.5,85.6 155.5,84.5 156.6,84.5 156.6,85.6 157.8,86.7 157.8,87.8 157.8,88.9 156.6,88.9 
	156.6,90 157.8,90 157.8,91.2 158.9,91.2 158.9,92.3 160,92.3 162.2,93.4 163.3,94.5 164.4,95.6 166.6,96.7 167.7,96.7 167.7,97.8 
	167.7,98.9 168.9,98.9 170,100 171.1,100 172.2,101.1 172.2,102.2 171.1,103.4 171.1,104.5 172.2,104.5 173.3,105.6 173.3,106.7 
	173.3,107.8 172.2,107.8 174.4,108.9 175.5,108.9 176.6,108.9 177.7,110 177.7,111.1 178.8,111.1 179.9,111.1 181.1,112.2 
	182.2,112.2 182.2,113.4 183.3,113.4 183.3,114.5 183.3,115.6 183.3,116.7 183.3,117.8 183.3,118.9 184.4,118.9 184.4,120 
	185.5,120 185.5,121.1 185.5,122.2 185.5,122.2 "/>
<polyline class="st1" points="40.1,157.8 39,156.7 39,155.6 39,154.4 39,151.1 39,150 39,148.9 36.7,146.7 35.6,146.7 34.5,146.7 
	32.3,143.3 29,140 27.9,140 27.9,138.9 26.8,136.7 25.6,136.7 25.6,135.6 25.6,134.4 26.8,134.4 25.6,133.3 25.6,132.2 25.6,131.1 
	24.5,130 23.4,128.9 22.3,127.8 21.2,126.7 21.2,125.6 21.2,124.5 21.2,123.3 21.2,122.2 20.1,122.2 21.2,121.1 20.1,120 
	20.1,118.9 19,118.9 19,117.8 20.1,116.7 20.1,115.6 20.1,112.2 20.1,111.1 20.1,110 19,110 17.9,110 17.9,108.9 17.9,107.8 
	19,106.7 21.2,105.6 22.3,104.5 22.3,103.4 24.5,100 25.6,98.9 26.8,96.7 27.9,93.4 29,93.4 29,92.3 30.1,92.3 31.2,91.2 31.2,90 
	"/>
<polyline class="st1" points="31.2,90 32.3,90 33.4,90 34.5,90 35.6,90 36.7,90 37.8,90 39,88.9 40.1,88.9 41.2,88.9 43.4,87.8 
	43.4,86.7 44.5,85.6 45.6,85.6 45.6,86.7 47.8,88.9 49,90 49,88.9 50.1,87.8 51.2,87.8 52.3,87.8 53.4,86.7 54.5,86.7 54.5,85.6 
	55.6,85.6 56.7,84.5 57.8,84.5 58.9,84.5 58.9,83.4 60,84.5 62.3,84.5 64.5,83.4 66.7,83.4 68.9,83.4 71.2,83.4 72.3,83.4 
	72.3,82.3 72.3,81.2 73.4,81.2 74.5,80.1 75.6,78.9 76.7,77.8 77.8,76.7 77.8,75.6 77.8,74.5 76.7,74.5 75.6,73.4 75.6,72.3 
	76.7,71.2 77.8,71.2 78.9,71.2 82.3,71.2 84.5,71.2 87.8,70.1 88.9,70.1 90,68.9 92.2,68.9 93.4,68.9 93.4,70.1 94.5,70.1 
	94.5,68.9 95.6,68.9 95.6,67.8 100,65.6 100,64.5 101.1,64.5 102.2,63.4 103.3,61.2 105.6,59 105.6,57.8 106.7,59 107.8,57.8 
	107.8,56.7 108.9,56.7 108.9,55.6 110,55.6 111.1,55.6 111.1,54.5 112.2,52.3 111.1,52.3 111.1,51.2 111.1,50.1 112.2,49 113.3,49 
	114.4,49 115.6,47.8 117.8,46.7 118.9,45.6 120,45.6 121.1,45.6 123.3,45.6 125.6,45.6 126.7,45.6 "/>
<polyline class="st0" points="14.5,17.9 15.6,17.9 17.9,17.9 19,17.9 20.1,17.9 20.1,19 20.1,20.1 20.1,21.2 21.2,22.3 22.3,22.3 
	24.5,23.4 24.5,26.8 24.5,27.9 24.5,29 24.5,30.1 25.6,30.1 26.8,31.2 26.8,34.5 26.8,35.6 26.8,36.7 27.9,37.8 26.8,39 26.8,40.1 
	25.6,42.3 25.6,43.4 26.8,43.4 26.8,45.6 26.8,46.7 26.8,47.8 26.8,49 27.9,49 27.9,50.1 27.9,51.2 29,52.3 30.1,54.5 32.3,56.7 
	33.4,56.7 33.4,57.8 34.5,57.8 33.4,57.8 32.3,57.8 31.2,59 29,57.8 27.9,57.8 26.8,57.8 25.6,57.8 24.5,57.8 22.3,59 21.2,57.8 
	19,57.8 15.6,57.8 14.5,59 14.5,60.1 13.4,60.1 13.4,61.2 12.3,62.3 16.8,66.7 16.8,67.8 20.1,70.1 20.1,71.2 23.4,73.4 24.5,73.4 
	26.8,75.6 27.9,77.8 29,78.9 30.1,81.2 30.1,82.3 30.1,83.4 31.2,84.5 31.2,85.6 31.2,86.7 32.3,86.7 32.3,87.8 32.3,88.9 31.2,90 
	31.2,90 "/>
<polyline class="st0" points="0.1,64.5 0.1,63.4 1.2,63.4 2.3,63.4 3.4,62.3 3.4,60.1 3.4,59 3.4,56.7 3.4,55.6 4.5,55.6 5.7,55.6 
	5.7,54.5 6.8,51.2 6.8,50.1 7.9,49 7.9,47.8 9,47.8 9,46.7 9,45.6 10.1,45.6 10.1,44.5 11.2,43.4 11.2,42.3 13.4,41.2 14.5,41.2 
	15.6,41.2 17.9,40.1 17.9,39 19,39 21.2,37.8 21.2,36.7 21.2,35.6 21.2,34.5 21.2,33.4 21.2,32.3 21.2,31.2 21.2,30.1 21.2,29 
	20.1,29 20.1,27.9 20.1,26.8 19,26.8 17.9,26.8 16.8,26.8 15.6,26.8 15.6,25.6 15.6,24.5 15.6,23.4 14.5,19 14.5,17.9 14.5,17.9 "/>
<polyline class="st0" points="0.1,12.3 1.2,11.2 2.3,11.2 3.4,11.2 4.5,10.1 5.7,9 9,9 "/>
<polyline class="st0" points="9,9 11.2,11.2 12.3,14.5 14.5,17.9 "/>
<polyline class="st0" points="126.7,45.6 127.8,42.3 127.8,41.2 126.7,40.1 125.6,40.1 123.3,39 123.3,37.8 122.2,37.8 122.2,36.7 
	122.2,34.5 122.2,33.4 123.3,32.3 122.2,31.2 121.1,30.1 121.1,27.9 120,25.6 121.1,24.5 118.9,23.4 117.8,22.3 117.8,23.4 
	116.7,23.4 115.6,24.5 114.4,24.5 114.4,23.4 113.3,23.4 113.3,22.3 113.3,20.1 114.4,19 115.6,17.9 116.7,16.8 118.9,15.6 
	118.9,14.5 117.8,13.4 116.7,11.2 115.6,9 117.8,7.9 117.8,6.8 118.9,6.8 120,5.7 122.2,4.5 122.2,3.4 121.1,3.4 121.1,2.3 
	121.1,1.2 121.1,0.1 120,0.1 120,0.1 "/>
<polyline class="st0" points="9,9 9,7.9 9,5.7 7.9,1.2 7.9,0.1 7.9,0.1 "/>
<polyline class="st2" points="203.3,62.3 202.2,63.4 202.2,64.5 202.2,65.6 192.2,65.6 191.1,62.3 "/>
<polyline class="st2" points="143.3,75.6 144.4,74.5 148.9,72.3 147.8,70.1 148.9,66.7 148.9,65.6 150,64.5 150,63.4 150,61.2 
	152.2,59 153.3,59 154.4,56.7 154.4,55.6 154.4,53.4 156.6,53.4 160,53.4 164.4,52.3 165.5,52.3 165.5,53.4 165.5,55.6 166.6,56.7 
	167.7,57.8 168.9,59 170,62.3 171.1,63.4 175.5,64.5 181.1,62.3 185.5,62.3 189.9,62.3 191.1,62.3 "/>
<polygon id="caf" class="st3" points="132.2,52.3 134.4,56.7 136.7,60.1 136.7,62.3 136.7,63.4 135.6,63.4 136.7,65.6 136.7,67.8 
	135.6,68.9 134.4,68.9 133.3,71.2 134.4,71.2 135.6,71.2 135.6,72.3 134.4,73.4 134.4,74.5 135.6,74.5 137.8,74.5 138.9,74.5 
	140,74.5 141.1,74.5 142.2,74.5 143.3,74.5 144.4,76.7 143.3,76.7 143.3,77.8 142.2,78.9 143.3,78.9 143.3,80.1 144.4,80.1 
	145.5,80.1 146.6,81.2 148.9,81.2 150,81.2 151.1,81.2 152.2,81.2 153.3,82.3 153.3,83.4 154.4,84.5 154.4,85.6 155.5,85.6 
	155.5,84.5 156.6,84.5 156.6,85.6 157.8,86.7 157.8,87.8 157.8,88.9 156.6,88.9 156.6,90 157.8,90 157.8,91.2 158.9,91.2 
	158.9,92.3 160,92.3 162.2,93.4 163.3,94.5 164.4,95.6 166.6,96.7 167.7,96.7 167.7,97.8 167.7,98.9 168.9,98.9 170,100 171.1,100 
	172.2,101.1 172.2,102.2 171.1,103.4 171.1,104.5 172.2,104.5 173.3,105.6 173.3,106.7 173.3,107.8 172.2,107.8 174.4,108.9 
	175.5,108.9 176.6,108.9 177.7,110 177.7,111.1 178.8,111.1 179.9,111.1 181.1,112.2 182.2,112.2 182.2,113.4 183.3,113.4 
	183.3,114.5 183.3,115.6 183.3,116.7 183.3,117.8 183.3,118.9 184.4,118.9 184.4,120 185.5,120 185.5,121.1 185.5,122.2 
	185.5,121.1 184.4,120 182.2,120 181.1,120 179.9,120 178.8,120 178.8,121.1 178.8,122.2 177.7,121.1 176.6,121.1 175.5,121.1 
	173.3,122.2 173.3,121.1 172.2,120 170,118.9 168.9,118.9 167.7,120 165.5,120 164.4,118.9 163.3,118.9 162.2,118.9 162.2,117.8 
	161.1,117.8 158.9,117.8 158.9,118.9 157.8,120 158.9,120 158.9,121.1 157.8,122.2 156.6,122.2 155.5,122.2 154.4,122.2 
	153.3,122.2 152.2,123.3 151.1,123.3 150,123.3 148.9,122.2 147.8,121.1 146.6,121.1 145.5,122.2 146.6,122.2 145.5,122.2 
	144.4,123.3 143.3,123.3 142.2,123.3 140,124.5 138.9,124.5 135.6,125.6 134.4,126.7 133.3,127.8 132.2,127.8 131.1,126.7 
	130,126.7 128.9,125.6 127.8,125.6 127.8,124.5 126.7,124.5 126.7,126.7 125.6,126.7 124.4,127.8 124.4,128.9 123.3,128.9 
	123.3,130 122.2,131.1 122.2,132.2 122.2,133.3 121.1,133.3 120,133.3 118.9,133.3 117.8,133.3 116.7,133.3 116.7,132.2 
	115.6,132.2 113.3,132.2 112.2,132.2 111.1,132.2 110,132.2 108.9,132.2 105.6,132.2 104.5,131.1 103.3,131.1 103.3,130 102.2,130 
	101.1,130 100,130 98.9,130 96.7,130 95.6,128.9 95.6,127.8 93.4,125.6 92.2,124.5 90,123.3 88.9,123.3 87.8,122.2 87.8,121.1 
	86.7,121.1 85.6,121.1 84.5,121.1 83.4,121.1 82.3,121.1 78.9,122.2 78.9,123.3 77.8,123.3 77.8,124.5 76.7,124.5 76.7,125.6 
	75.6,126.7 74.5,127.8 74.5,128.9 73.4,130 73.4,131.1 72.3,131.1 71.2,131.1 70,131.1 70,132.2 71.2,132.2 71.2,133.3 72.3,134.4 
	72.3,135.6 71.2,136.7 71.2,138.9 71.2,140 71.2,141.1 71.2,142.2 71.2,141.1 70,141.1 70,140 68.9,140 66.7,141.1 66.7,142.2 
	65.6,142.2 65.6,141.1 64.5,141.1 62.3,141.1 61.2,141.1 61.2,140 60,140 58.9,140 57.8,140 56.7,138.9 55.6,140 54.5,140 
	52.3,141.1 50.1,141.1 49,141.1 46.7,141.1 45.6,141.1 45.6,142.2 44.5,142.2 44.5,143.3 44.5,144.4 44.5,145.6 43.4,145.6 
	43.4,146.7 43.4,148.9 43.4,150 44.5,150 43.4,151.1 43.4,152.2 42.3,153.3 41.2,155.6 41.2,156.7 40.1,157.8 39,156.7 39,155.6 
	39,154.4 39,151.1 39,150 39,148.9 36.7,146.7 35.6,146.7 34.5,146.7 32.3,143.3 29,140 27.9,140 27.9,138.9 26.8,136.7 25.6,136.7 
	25.6,135.6 25.6,134.4 26.8,134.4 25.6,133.3 25.6,132.2 25.6,131.1 24.5,130 23.4,128.9 22.3,127.8 21.2,126.7 21.2,125.6 
	21.2,124.5 21.2,123.3 21.2,122.2 20.1,122.2 21.2,121.1 20.1,120 20.1,118.9 19,118.9 19,117.8 20.1,116.7 20.1,115.6 20.1,112.2 
	20.1,111.1 20.1,110 19,110 17.9,110 17.9,108.9 17.9,107.8 19,106.7 21.2,105.6 22.3,104.5 22.3,103.4 24.5,100 25.6,98.9 
	26.8,96.7 27.9,93.4 29,93.4 29,92.3 30.1,92.3 31.2,91.2 31.2,90 32.3,90 33.4,90 34.5,90 35.6,90 36.7,90 37.8,90 39,88.9 
	40.1,88.9 41.2,88.9 43.4,87.8 43.4,86.7 44.5,85.6 45.6,85.6 45.6,86.7 47.8,88.9 49,90 49,88.9 50.1,87.8 51.2,87.8 52.3,87.8 
	53.4,86.7 54.5,86.7 54.5,85.6 55.6,85.6 56.7,84.5 57.8,84.5 58.9,84.5 58.9,83.4 60,84.5 62.3,84.5 64.5,83.4 66.7,83.4 
	68.9,83.4 71.2,83.4 72.3,83.4 72.3,82.3 72.3,81.2 73.4,81.2 74.5,80.1 75.6,78.9 76.7,77.8 77.8,76.7 77.8,75.6 77.8,74.5 
	76.7,74.5 75.6,73.4 75.6,72.3 76.7,71.2 77.8,71.2 78.9,71.2 82.3,71.2 84.5,71.2 87.8,70.1 88.9,70.1 90,68.9 92.2,68.9 
	93.4,68.9 93.4,70.1 94.5,70.1 94.5,68.9 95.6,68.9 95.6,67.8 100,65.6 100,64.5 101.1,64.5 102.2,63.4 103.3,61.2 105.6,59 
	105.6,57.8 106.7,59 107.8,57.8 107.8,56.7 108.9,56.7 108.9,55.6 110,55.6 111.1,55.6 111.1,54.5 112.2,52.3 111.1,52.3 
	111.1,51.2 111.1,50.1 112.2,49 113.3,49 114.4,49 115.6,47.8 117.8,46.7 118.9,45.6 120,45.6 121.1,45.6 123.3,45.6 125.6,45.6 
	126.7,45.6 126.7,46.7 127.8,47.8 127.8,49 128.9,49 "/>
</svg>
