<?xml version="1.0" encoding="utf-8"?>
<!-- Generator: Adobe Illustrator 23.0.1, SVG Export Plug-In . SVG Version: 6.00 Build 0)  -->
<svg version="1.1" id="Layer_1" xmlns="http://www.w3.org/2000/svg" xmlns:xlink="http://www.w3.org/1999/xlink" x="0px" y="0px"
	 viewBox="0 0 241.9 217.6" style="enable-background:new 0 0 241.9 217.6;" xml:space="preserve">
<style type="text/css">
	.st0{fill:none;stroke:#872222;stroke-width:0.2;stroke-linecap:round;stroke-linejoin:round;stroke-dasharray:0.32;}
	.st1{fill:#9A2E22;stroke:#872222;stroke-width:0.5;}
</style>
<title>bangladesh</title>
<g>
	<polyline class="st0" points="216.6,213.2 214.6,213.2 203.8,213.9 202.5,212.4 202.2,212 201.6,210.7 201.6,210 201.6,209.3 
		201.4,208.8 200.9,207.7 200.3,206.3 199.5,205.1 199.4,204.8 191.1,204 187.7,203.7 184,203.4 183.2,203.3 183.2,203.2 	"/>
	<polyline class="st0" points="183.2,203.2 183.4,202.9 183.8,202.4 184.1,202.2 184.7,201.7 185,201.5 185.6,200.7 186,199.9 
		187.1,198 187.9,196.5 188.4,195.6 189.5,194 189.9,193.5 190.5,192.1 191.5,189.1 192.3,186.8 192.6,186 192.8,185.4 193.1,185 
		193.5,184.6 194.1,184.2 196.6,183.1 197.4,183.1 198.1,183 203.1,182.8 206.9,184 207,184 	"/>
	<path class="st0" d="M24.1,183.9l0.5-0.1l3.2-6.6l6-3.1l-7.2-9.3l-1.2-1.5l-1.3-1.6 M24.1,151.6l1.6-0.4l4.2-1l4.4-1l0.4-0.1
		l8.7-2.2l8.9-2.2l1.2-1l2.2-1.8"/>
	<polyline class="st0" points="55.6,141.9 60.6,143 70.6,145.3 76.3,146.7 93.7,158.5 104.8,163.9 119.3,175.9 121.8,177.9 
		134.8,188.9 150.9,202.2 175.7,203.9 181.1,204.2 183.2,203.2 	"/>
	<polyline class="st0" points="24.1,131.6 27.1,129.9 27.2,129.9 29.4,128.6 35.3,125.3 41.5,121.7 45.2,119.6 48,118 49.7,117 	"/>
	<polyline class="st0" points="49.7,117 54,134.8 52.3,135.2 53.1,138.8 56.8,137.9 57.5,140.3 55.6,141.9 	"/>
	<polyline class="st0" points="110.2,43.5 110.6,44.2 110.5,44.4 110.4,44.5 101.7,53.6 94.7,55 94.1,56.1 92.8,58.4 92.1,64.4 
		92.4,64.9 93.7,68.1 94.1,68.8 94.1,73 93,74.6 92.3,75.6 92.2,76.2 92.1,76.7 92.1,77.6 92,78.2 91.8,78.7 91.7,79.5 91.3,80.5 
		91.2,81.1 91.1,81.6 91.1,81.8 91.1,83.3 91.1,84.2 91.2,87.3 91.2,89.9 89,93.5 87.8,96.1 87.4,97.2 81.6,100.3 73.8,104.5 
		73.2,104.8 70.4,106.3 67,108.1 63.2,110.1 59.9,111.8 52.6,115.6 50,116.9 49.7,117 	"/>
	<polyline class="st0" points="24.1,48.4 24.2,48.5 25.5,49.8 27.5,49.8 27.8,49.8 29.5,50.1 32.1,49.8 32.7,49.4 34.4,48.7 
		35,48.6 35.4,48.6 36.1,48.6 38,48 38.5,47.8 39.1,47.4 39.6,47.2 40.2,47.1 40.7,46.7 41.4,46.3 42.8,45.8 43.8,45.6 46.1,46 
		46.8,46.3 48.1,47 48.5,47.2 49.9,48.8 50.8,49.8 51.4,50.2 52.2,50.3 54.5,50.5 55.3,50.5 55.9,50.3 56.6,50.3 57.1,50.4 
		57.4,50.6 57.9,50.9 58.6,51.1 59.4,51.3 60,51.3 60.8,51 63,50.7 65.4,50.4 69.1,49.8 70.8,49.2 71.1,49.1 72.2,48.7 75.6,47.1 
		76.4,46.7 76.7,46.5 78.9,45.1 79.4,44.9 80,44.7 80.5,44.7 82.5,43.8 83,43.5 83.4,43.4 84.7,42.9 85.3,42.8 86.8,42.7 87.3,42.7 
		90.3,43.4 91.8,43.9 94.2,43.9 95.7,43.9 96.1,43.8 97.2,43.8 102,43 104.5,42.1 105.4,41.7 105.9,41.4 106.9,40.4 107.5,39.8 
		108,39.8 109.2,40.2 110.2,41 110.3,43 110.2,43.5 	"/>
	<polyline class="st0" points="149.4,42.4 149.1,43.2 149.4,43.7 149.9,44.3 150.6,44.3 151.3,44.8 151.4,47 151.4,47.5 151,48 
		150.5,49 150.6,49.5 150.9,49.8 151.3,49.8 152,49.8 153.4,50.6 154.1,51.7 154.1,52.6 153.7,53.1 153.3,54.2 153.3,54.5 154,55.3 
		154.5,56.2 154.5,56.7 154.9,57 155.4,57.2 155.8,57.1 156.3,56.9 156.6,56.8 157.1,56.8 157.7,57.7 158.4,60.5 158.9,62.6 
		159.1,64.1 160.1,65.4 161,64.9 161.7,64.9 161.8,65 163.5,65.9 164.1,66.4 164.5,66.8 165.1,67.6 165.3,68.1 165.5,68.5 
		165.8,68.8 167.6,68.8 167.9,68.4 171.2,67.7 172,68.1 172.1,68.5 172.6,68.8 173.1,68.9 174,68.7 174.5,68.3 175,68.3 175.4,68.6 
		175.2,69.3 174.2,70.4 173.6,70.7 172.3,71.1 171.6,71.2 171,71.1 170.4,71.2 169.6,73.4 169.8,75.4 170.8,77.1 171.1,77.4 
		172.5,79.1 172.3,79.6 172.8,80.4 173.2,80.6 172.9,82.9 170.8,83.9 170,83.6 169.3,83.3 168.2,84.5 168.3,85.2 168.5,85.7 
		168.1,87.1 167.8,87.3 166.9,87 166.5,88.3 166,88.7 165.6,88.7 165.3,89 164.6,90.6 164.8,91 165.2,91.3 165.6,92.1 166,93.6 
		165.7,94.2 164.6,93.9 163.3,93.6 161.3,96.3 161.7,97.9 162.1,98.7 162.6,98.5 163.1,98.5 163.5,98.9 163.7,99.4 163.5,102.4 
		163.2,102.7 161.9,103.9 160.9,106 161.2,106.5 161.6,106.6 162.1,106.6 162.5,106.6 163.3,107.7 164.9,110.1 165.1,110.7 
		165.9,112 166.9,112.6 166.9,113.5 167.5,113.4 168,112.9 169.3,112.6 170.1,114.2 169.2,114.9 169,115.3 170,115.7 170.3,115.8 
		171.2,115.6 171.6,116.1 171.9,116.6 172,117.1 172,117.6 173.4,119.2 174.3,119.9 174.7,121.3 174.5,121.7 173.8,122.5 
		173.2,123.6 173.1,125.3 173.2,125.8 174,126.2 174.4,126.2 174.9,126.1 175.6,125.9 176.1,125.8 176.6,125.9 177.7,126.1 
		178.4,126.3 179.1,126.6 179.8,127 180.9,127.9 182.6,129 183.3,129.4 183.7,129.6 184.3,129.9 185.9,131.3 186.2,131.6 186.6,132 
		187,132.4 187.5,132.9 187.9,133.2 189.6,134.4 189.9,134.7 191,135.4 191.3,135.6 192.1,135.4 193,135.2 193.3,134.8 194.9,135.1 
		196.3,136.8 195.9,137.6 197.9,140.5 199.3,142.4 199.9,143.3 201.8,145.6 202.6,146.5 203.8,147.9 204,148.3 203.6,149.7 
		203.1,151.2 202.3,153.8 201.9,155.3 201.5,156.3 201.6,158.3 201.7,159.7 201.7,160 201.7,160.6 201.8,162.3 201.9,164.4 
		204.4,164.3 205.8,164.3 207.8,164.3 207.8,165.3 208,171 208.1,172.5 208.2,174.4 208.8,175 209.4,175.1 210.1,175.4 210.4,175.6 
		212.7,177.4 215,179.9 215,180.6 215.1,181.8 215.8,183.8 216.3,184.2 217.6,184.5 	"/>
	<polyline class="st0" points="110.2,43.5 110.6,43.3 113.1,42.7 113.9,42.6 114,42.1 116.2,38.6 116.8,38.2 117.2,37.9 117.8,38.2 
		118.9,38.9 119.4,39 120,39.1 120.7,38.9 123.1,38.2 128.5,40.6 130.7,41 133.8,41.1 135.3,41 135.7,40.6 136,40 136.8,39.2 
		137.4,39.1 137.8,39.2 138.2,39.2 138.6,39.2 140.4,40 141,40.8 141,41.6 141,42.2 140.4,42.5 139.9,43.6 140.9,45.8 141.9,46.1 
		142.2,45.4 142.4,44.7 143.8,44.2 144.3,43.8 144.6,43.7 145.6,42.8 145.8,42.5 146.1,42.2 147,41.7 148.7,41.9 149.2,42.1 
		149.4,42.4 	"/>
	<polyline class="st0" points="149.4,42.4 149.5,41.9 149.9,40 149.8,39.4 149.6,39 147.1,36.9 146.5,36.7 146.1,36.6 146,33.1 
		146.2,31.6 146.5,31.1 145.8,30.1 141.3,28 140.2,27.5 140.4,26.3 141.7,23.5 142.9,21.2 144,19.1 144.2,18.5 143.4,17.5 
		141.5,17.8 141.3,17.4 141.3,16.4 141.4,16 141.5,15.2 141.4,13.2 141.3,12.4 140.6,10.9 141.1,9.2 141.1,8.5 140.8,8.1 140.3,8 
		139.7,7.5 139,6 138.9,5.3 139.4,4.2 139.5,3.7 	"/>
	<polygon class="st1" points="119.4,39 120,39.1 120.7,38.9 123.1,38.2 128.5,40.6 130.7,41 133.8,41.1 135.3,41 135.7,40.6 136,40 
		136.8,39.2 137.4,39.1 137.8,39.2 138.2,39.2 138.6,39.2 140.4,40 141,40.8 141,41.6 141,42.2 140.4,42.5 139.9,43.6 140.9,45.8 
		141.9,46.1 142.2,45.4 142.4,44.7 143.8,44.2 144.3,43.8 144.6,43.7 145.6,42.8 145.8,42.5 146.1,42.2 147,41.7 148.7,41.9 
		149.2,42.1 149.4,42.4 149.1,43.2 149.4,43.7 149.9,44.3 150.6,44.3 151.3,44.8 151.4,47 151.4,47.5 151,48 150.5,49 150.6,49.5 
		150.9,49.8 151.3,49.8 152,49.8 153.4,50.6 154.1,51.7 154.1,52.6 153.7,53.1 153.3,54.2 153.3,54.5 154,55.3 154.5,56.2 
		154.5,56.7 154.9,57 155.4,57.2 155.8,57.1 156.3,56.9 156.6,56.8 157.1,56.8 157.7,57.7 158.4,60.5 158.9,62.6 159.1,64.1 
		160.1,65.4 161,64.9 161.7,64.9 161.8,65 163.5,65.9 164.1,66.4 164.5,66.8 165.1,67.6 165.3,68.1 165.5,68.5 165.8,68.8 
		167.6,68.8 167.9,68.4 171.2,67.7 172,68.1 172.1,68.5 172.6,68.8 173.1,68.9 174,68.7 174.5,68.3 175,68.3 175.4,68.6 175.2,69.3 
		174.2,70.4 173.6,70.7 172.3,71.1 171.6,71.2 171,71.1 170.4,71.2 169.6,73.4 169.8,75.4 170.8,77.1 171.1,77.4 172.5,79.1 
		172.3,79.6 172.8,80.4 173.2,80.6 172.9,82.9 170.8,83.9 170,83.6 169.3,83.3 168.2,84.5 168.3,85.2 168.5,85.7 168.1,87.1 
		167.8,87.3 166.9,87 166.5,88.3 166,88.7 165.6,88.7 165.3,89 164.6,90.6 164.8,91 165.2,91.3 165.6,92.1 166,93.6 165.7,94.2 
		164.6,93.9 163.3,93.6 161.3,96.3 161.7,97.9 162.1,98.7 162.6,98.5 163.1,98.5 163.5,98.9 163.7,99.4 163.5,102.4 163.2,102.7 
		161.9,103.9 160.9,106 161.2,106.5 161.6,106.6 162.1,106.6 162.5,106.6 163.3,107.7 164.9,110.1 165.1,110.7 165.9,112 
		166.9,112.6 166.9,113.5 167.5,113.4 168,112.9 169.3,112.6 170.1,114.2 169.2,114.9 169,115.3 170,115.7 170.3,115.8 171.2,115.6 
		171.6,116.1 171.9,116.6 172,117.1 172,117.6 173.4,119.2 174.3,119.9 174.7,121.3 174.5,121.7 173.8,122.5 173.2,123.6 
		173.1,125.3 173.2,125.8 174,126.2 174.4,126.2 174.9,126.1 175.6,125.9 176.1,125.8 176.6,125.9 177.7,126.1 178.4,126.3 
		179.1,126.6 179.8,127 180.9,127.9 182.6,129 183.3,129.4 183.7,129.6 184.3,129.9 185.9,131.3 186.2,131.6 186.6,132 187,132.4 
		187.5,132.9 187.9,133.2 189.6,134.4 189.9,134.7 191,135.4 191.3,135.6 192.1,135.4 193,135.2 193.3,134.8 194.9,135.1 
		196.3,136.8 195.9,137.6 197.9,140.5 199.3,142.4 199.9,143.3 201.8,145.6 202.6,146.5 203.8,147.9 204,148.3 203.6,149.7 
		203.1,151.2 202.3,153.8 201.9,155.3 201.5,156.3 201.6,158.3 201.7,159.7 201.7,160 201.7,160.6 201.8,162.3 201.9,164.4 
		204.4,164.3 205.8,164.3 207.8,164.3 207.8,165.3 208,171 208.1,172.5 208.2,174.4 208.8,175 209.4,175.1 210.1,175.4 210.4,175.6 
		212.7,177.4 215,179.9 215,180.6 215.1,181.8 215.8,183.8 216.3,184.2 217.6,184.5 217.8,185 217.4,185.3 215.8,185.3 214.8,185.2 
		214.1,184.9 213.3,184.6 212.9,184.3 212.4,184.1 212.1,183.8 211.3,183.5 210.7,183.4 209.6,183.3 209.2,183.3 207.3,183.7 
		207,184 206.9,184 203.1,182.8 198.1,183 197.4,183.1 196.6,183.1 194.1,184.2 193.5,184.6 193.1,185 192.8,185.4 192.6,186 
		192.3,186.8 191.5,189.1 190.5,192.1 189.9,193.5 189.5,194 188.4,195.6 187.9,196.5 187.1,198 186,199.9 185.6,200.7 185,201.5 
		184.7,201.7 184.1,202.2 183.8,202.4 183.4,202.9 183.2,203.2 181.1,204.2 175.7,203.9 150.9,202.2 134.8,188.9 121.8,177.9 
		119.3,175.9 104.8,163.9 93.7,158.5 76.3,146.7 70.6,145.3 60.6,143 55.6,141.9 57.5,140.3 56.8,137.9 53.1,138.8 52.3,135.2 
		54,134.8 49.7,117 50,116.9 52.6,115.6 59.9,111.8 63.2,110.1 67,108.1 70.4,106.3 73.2,104.8 73.8,104.5 81.6,100.3 87.4,97.2 
		87.8,96.1 89,93.5 91.2,89.9 91.2,87.3 91.1,84.2 91.1,83.3 91.1,81.8 91.1,81.6 91.2,81.1 91.3,80.5 91.7,79.5 91.8,78.7 92,78.2 
		92.1,77.6 92.1,76.7 92.2,76.2 92.3,75.6 93,74.6 94.1,73 94.1,68.8 93.7,68.1 92.4,64.9 92.1,64.4 92.8,58.4 94.1,56.1 94.7,55 
		101.7,53.6 110.4,44.5 110.5,44.4 110.6,44.2 110.2,43.5 110.6,43.3 113.1,42.7 113.9,42.6 114,42.1 116.2,38.6 116.8,38.2 
		117.2,37.9 117.8,38.2 118.9,38.9 	"/>
</g>
</svg>
