<?xml version="1.0" encoding="utf-8"?>
<!-- Generator: Adobe Illustrator 22.1.0, SVG Export Plug-In . SVG Version: 6.00 Build 0)  -->
<svg version="1.1" id="Layer_1" xmlns="http://www.w3.org/2000/svg" xmlns:xlink="http://www.w3.org/1999/xlink" x="0px" y="0px"
	 viewBox="0 0 220.2 220.3" style="enable-background:new 0 0 220.2 220.3;" xml:space="preserve">
<style type="text/css">
	.st0{fill:none;stroke:#872222;stroke-width:0.2;stroke-linecap:round;stroke-linejoin:round;stroke-dasharray:0.32;}
	.st1{fill:none;stroke:#FFFFFF;stroke-width:0.2;stroke-linecap:round;stroke-linejoin:round;}
	.st2{fill:none;stroke:#872222;stroke-width:0.25;stroke-linecap:round;stroke-linejoin:round;stroke-dasharray:0.32;}
	.st3{fill:#9A2E22;stroke:#872222;stroke-width:0.5;}
</style>
<title>libya</title>
<line class="st0" x1="193" y1="168.3" x2="220.1" y2="166.2"/>
<polyline class="st0" points="184.2,220.2 183.9,212 183.8,209.3 183.7,206.7 183.6,205.8 183.4,198.8 183.4,198.4 183.4,198 "/>
<polyline class="st1" points="183.4,198 183.4,197.9 183.1,193.3 183.1,192.2 183.6,192.2 184.8,192.1 188.1,192 189.5,191.9 
	190.1,191.9 191.5,191.8 193.9,191.7 194.1,191.6 193.5,179.9 193,168.3 "/>
<polyline class="st2" points="89.4,220.2 89.6,217.1 89.8,214.2 89.8,213.7 90.2,207.9 90.3,207.2 90.6,205.2 91.5,198.2 
	91.7,196.6 92,194.6 92.6,193.5 93.4,192.2 94.6,190 94.7,189.7 91.1,185.5 90.8,185.4 90.6,185.2 90.2,184.8 89.9,184.2 
	89.9,183.8 89.9,183.5 90.1,183.1 90.3,182.9 90.7,182.7 90.3,181.9 89.8,181 87.1,176.8 86.3,176.3 86.2,175.9 86.2,174.8 
	86.2,174.3 86.2,172.4 86.2,170.3 85.8,167.9 84.7,161.5 84.3,159.1 84.3,158.6 "/>
<polyline class="st1" points="84.3,158.6 85.7,157.9 87.9,156.9 95.1,153.5 98.9,155.4 105.7,158.9 113,162.6 113.4,162.7 
	117.1,164.7 120.7,166.5 125.1,168.7 127.7,170 130.9,171.6 137.3,174.8 143.1,177.9 149.3,180.9 153.9,183.3 158.4,185.5 
	164.4,188.5 172.2,192.5 177.2,194.9 183.4,198 "/>
<polyline class="st1" points="51.9,151.5 52.3,151.6 55.1,152.4 55.7,152.6 56.3,152.7 57.1,153 58.4,153.3 61.6,154.2 63.9,154.8 
	66.5,155.5 67,155.6 67.2,155.7 67.8,155.9 68.6,156.3 68.8,156.4 69.1,156.7 69.3,156.8 72.4,159.7 75.9,163 77.2,162.3 
	77.9,161.9 78.7,161.5 82.3,159.6 82.8,159.4 83.9,158.8 84.3,158.6 "/>
<polyline class="st0" points="0.1,180.7 1.3,179.9 3.3,178.7 4.3,178.3 6.4,177 7.9,176.2 13.9,172.8 15.5,171.9 18.7,170.2 
	23.9,167.2 27.1,165.5 31.2,163.1 33.7,161.8 36.8,160 38.3,159.2 39.1,158.7 42.2,157.1 48.9,153.3 49.5,152.9 51.9,151.5 "/>
<polyline class="st1" points="193,168.3 193,167.8 192.8,165 192,149.9 191.7,144.7 191.5,140.9 191.2,135.8 191.1,133.3 
	190.7,128.1 190.4,121.9 190.1,115.9 190,114.9 189.9,113.1 189.8,110.6 189.8,109.9 189.7,109 189.5,104.9 189.4,102.7 
	189.3,102.1 189.2,101 189.1,99.4 189.1,98.2 189,96.7 188.9,95 188.3,87 188.2,83.6 187.1,81.5 187,81.1 186.7,80.7 186.7,79.7 
	185.9,77.1 186,76.8 186,76.6 186,76.3 185.9,75.9 185.7,75.5 185.2,74.6 184.7,73.6 184.6,73.4 184.5,73.1 184.5,72.8 184.7,72.3 
	185.1,71.4 185.5,70.7 185.9,70.3 186,69.9 186.5,69 186.9,67.5 187.2,65.6 186.9,65.1 186.7,64.7 185.9,63.1 185.9,62.8 
	185.5,61.4 185.2,58.9 185.5,58.5 186.2,57.9 186.6,57.5 186.9,57 187.1,56.5 187.1,56.3 187.4,55.9 187.7,55.6 187.9,55.5 
	187.9,55.5 "/>
<polyline class="st1" points="51.9,151.5 51.3,150.1 49.7,146.6 49.4,145.9 47.8,142.3 46.8,141.9 46.5,141.8 45.5,141.5 
	44.7,141.1 43.1,140.5 42,140.2 41.5,139.9 40.1,139.3 39.3,138.9 38.9,138.7 38.4,138.9 37.4,139.2 36.3,139.6 35.6,139.5 
	34.5,138.5 34,138 33.9,137.4 33.8,136.8 33.7,136.3 33.2,136 32.8,135.7 32,135.1 32,134.8 32,134 32.1,133.2 32.1,132.3 32.2,130 
	32.1,129.5 31.9,129 30.4,126.6 29.8,125.6 26.7,120.7 26.3,120 26,119.4 25.9,119.1 26,118.8 26.6,118.1 27.2,117.1 29,116.3 
	30,115.9 31.2,115.5 31.5,114.3 31.8,113.6 31.6,113.4 31.9,112.4 31.9,112.1 32.1,111.5 31.9,111.3 31.2,110.8 31.1,109.7 
	31.1,109.1 30.9,108.6 30.4,106.7 30.3,106 30.9,104.6 31.4,103.5 32,102.7 32.2,102.3 32.9,100.2 33.1,99.9 33.1,99.7 32.6,98.2 
	32,96.6 31.9,96.3 31.6,95.1 31.6,94.9 31.8,94.3 31.9,93.3 32.3,91.4 32.5,90.7 32.7,89.9 32.7,89.1 32.8,88.7 32.9,88.2 32.9,87 
	32.9,86.5 32.9,85.6 32.8,85.4 32.8,85.1 32.8,84.6 32.7,84.1 32.3,81.3 32.2,81.1 31.9,80.3 31.5,79.1 31.3,78.7 31.1,78.2 
	30.6,77.1 30.5,76.8 30.3,76.6 29.5,74.9 29,74.4 29,74.2 28.8,73.9 28.7,73.7 28.5,73.5 28.2,73.2 28.2,72.9 28.9,72.6 30.3,71.9 
	30.5,71.8 "/>
<polyline class="st1" points="30.5,71.8 31.5,71.4 32.6,71 33.7,70.7 33.9,70.7 34.2,70.6 35.2,69.5 36.3,68 37.7,66.4 37.8,66.2 
	38.5,64.8 38.7,64.3 38.5,62.4 38.2,61 37.7,59.5 37.4,58.3 37.5,57.4 39.2,55.2 39.5,54.9 39.9,54.8 40.2,54.8 40.5,54.9 40.7,55 
	41.1,55 41.3,54.8 41.7,54.6 42.6,53.5 43.6,52.3 44.7,51.6 44.8,51.5 45.1,50.9 45.4,50.4 46.9,49.7 48.1,49.2 48.5,49.1 
	49.9,48.5 50.8,48.1 51.5,47.7 51.9,47.5 52.3,47.3 52.4,47.1 52.6,46.8 52.6,46.4 52.4,45.9 52.2,45.7 52,45.5 51.8,45.3 51.6,45 
	51.5,44.7 51.8,42.2 51.9,41.3 52.1,40.1 52.2,39.7 52.3,39.4 52.4,39.1 52.4,38.9 52.5,38.7 "/>
<polyline class="st0" points="24.4,0.1 24.3,0.3 24,1.3 23.8,2.6 23.5,3.7 23.5,4.1 23.2,4.6 23.1,5.3 23.1,5.8 23.1,6.4 23.2,6.7 
	23.4,6.9 23.5,7.1 23.7,7.4 23.7,7.9 23.7,8.1 23.7,8.6 23.3,10 23.2,10.3 23.1,10.7 23.1,11 23.1,11.4 23.1,11.7 23.3,12 
	23.8,13.1 23,14.1 22.4,15.7 22.3,17.1 22.3,18.3 22.1,18.3 22,18.3 21.8,18.6 21.6,18.8 21.7,19.1 21.8,19.3 20.4,20.6 20.3,20.7 
	19.9,20.7 19.5,20.9 17.9,21.6 17.6,21.8 17.4,22.2 17.3,22.7 16.9,23.7 16.6,23.9 16.3,23.9 16,23.9 15.9,23.9 15.5,24.1 
	15.3,24.2 14.3,25.2 14.1,25.5 14.1,25.5 14,26.3 13.9,26.7 13.8,27 13.7,27.3 13.6,27.7 13.8,28.6 14,30.2 15.1,32.3 15.5,33.3 
	15.4,33.5 15.4,33.9 15.3,34.5 15.3,34.9 15.3,35.3 15.4,35.5 15.5,35.8 18,37.1 18.2,37.2 18.6,37.2 19.3,38.3 20.3,40.1 
	20.5,40.6 20.6,41.1 20.6,41.7 20.6,42.1 20.7,43.7 20.7,44.2 21.3,44.7 22.7,45.8 23.8,46.8 25.5,48.2 26.8,49.3 27.3,49.8 
	27.5,50.9 27.6,51.9 28.1,55.3 28.3,56.8 28.9,60.7 29.1,62.3 29.5,64.7 29.9,67.1 30,68.5 30.4,71 30.5,71.6 30.5,71.8 "/>
<polygon class="st3" points="62.4,43.4 64.3,43.5 64.6,43.5 65,43.5 65.4,43.5 65.9,43.4 66.8,43.1 67,43 67.8,42.7 68,42.7 
	68.2,42.5 68.4,42.3 68.9,42.3 69.4,42.3 70.2,42.5 70.4,42.6 71.5,43.1 71.9,43.5 72.2,43.7 72.5,43.8 72.8,43.9 73.1,43.9 
	73.9,43.9 74.2,43.9 74.5,43.9 75.6,44.1 75.8,44.2 76,44.3 76.2,44.4 76.6,44.7 76.8,44.7 77.1,44.7 77.5,44.8 78.2,44.9 
	78.3,44.9 78.7,45.1 79.8,45.9 80.7,46.8 81,47.1 81.1,47.2 81.4,47.4 82,47.5 82.7,47.6 83.1,47.8 83.8,48.2 84.4,48.2 85.9,48.3 
	87.8,48.7 88.1,48.8 88.3,49 89.2,49.8 90.1,51.7 89.9,53.1 89.9,53.3 89.9,53.6 89.9,54 90.1,54.7 90.3,55.2 91.1,57.5 92.5,59.5 
	93.1,60.3 93.8,60.7 94.9,61.3 95.2,61.5 96,61.9 97.1,62.3 97.4,62.3 98.1,62.5 98.5,62.6 98.8,62.7 101.3,62.8 101.5,62.8 
	101.9,62.8 102.3,62.7 102.8,62.7 103.3,62.7 103.6,62.7 103.9,62.8 105.6,63.2 106.2,63.5 106.5,63.5 106.9,63.8 107.5,63.9 
	107.6,63.9 109,64.3 110,64.4 110.3,64.7 110.6,64.8 110.7,65 111.1,65.1 111.3,65.2 112,65.4 112.3,65.5 114.4,66.3 115.3,67 
	115.6,67.1 117,67.5 118.2,67.9 118.6,68.2 118.9,68.6 119.4,69.2 120,69.7 120.3,69.9 122.4,71.6 123.6,72.4 124.4,72.7 
	124.5,72.9 125.6,73.5 125.8,73.6 126.1,73.8 126.6,73.9 126.8,73.9 128.2,73.9 128.7,73.9 129.8,73.6 130,73.5 132.8,72 134.1,71 
	134.2,70.8 135.3,69.5 136.8,67.4 137.1,66.9 137.6,65.8 137.8,65.5 137.9,65.1 138,64.5 138,64.3 138,63.4 137.9,62.9 137.9,62.7 
	137.5,61.6 137.4,61.4 137.1,61.2 136.9,61 136.7,60.7 136.6,60.4 136.2,59.5 136,59.1 135.9,58.5 135.6,56.9 135.5,56.7 
	135.5,56.4 135.5,55.5 135.7,53.9 135.8,53.8 136.3,52.6 136.8,51.6 137.1,51.3 139.5,48.7 141.6,46.9 141.8,46.8 143.1,46.2 
	144.7,45.3 144.9,45.1 145.1,45 145.4,44.8 145.7,44.7 146.7,44.2 147.2,44.1 147.8,44.2 148.2,44.2 148.8,44.2 149.2,44.1 
	149.6,44 149.8,43.9 150.2,43.8 150.6,43.5 150.9,43.4 151,43.1 151.2,42.9 152.1,42.1 153,42 153.2,42.1 153.6,42.3 154.3,42.4 
	154.7,42.4 155.3,42.3 155.6,42.3 155.9,42.3 156.5,42.3 157.8,42.5 159,42.5 159.2,42.5 159.5,42.7 160,43 160.9,43.5 161.1,43.5 
	161.5,43.5 163.9,44.1 164.2,44.3 164.5,44.5 164.8,44.6 165.1,44.7 165.4,44.7 165.8,44.7 167,45.2 166.9,45.6 166.8,48.6 
	167.3,48.8 167.7,48.9 168.2,49.2 168.5,49.9 168.8,49.9 170.6,50.1 171,50.2 171.7,50.1 172.4,50.1 173.2,50.1 174,50.3 
	175.6,50.7 175.9,51 175.8,51.2 176,51.5 176.7,51.9 177,51.9 177.3,51.9 181.5,51.9 181.8,51.9 182.2,51.7 182.6,51.4 183.5,51.3 
	183.9,51.5 184.5,51.6 185.2,51.8 185.9,51.9 186.2,52 186.5,52.3 186.5,52.7 186.4,53.1 187,53.9 187.1,54.1 187.5,54.6 
	187.9,55.2 187.9,55.5 187.9,55.5 187.7,55.6 187.4,55.9 187.1,56.3 187.1,56.5 186.9,57 186.6,57.5 186.2,57.9 185.5,58.5 
	185.2,58.9 185.5,61.4 185.9,62.8 185.9,63.1 186.7,64.7 186.9,65.1 187.2,65.6 186.9,67.5 186.5,69 186,69.9 185.9,70.3 
	185.5,70.7 185.1,71.4 184.7,72.3 184.5,72.8 184.5,73.1 184.6,73.4 184.7,73.6 185.2,74.6 185.7,75.5 185.9,75.9 186,76.3 
	186,76.6 186,76.8 185.9,77.1 186.7,79.7 186.7,80.7 187,81.1 187.1,81.5 188.2,83.6 188.3,87 188.9,95 189,96.7 189.1,98.2 
	189.1,99.4 189.2,101 189.3,102.1 189.4,102.7 189.5,104.9 189.7,109 189.8,109.9 189.8,110.6 189.9,113.1 190,114.9 190.1,115.9 
	190.4,121.9 190.7,128.1 191.1,133.3 191.2,135.8 191.5,140.9 191.7,144.7 192,149.9 192.8,165 193,167.8 193,168.3 193.5,179.9 
	194.1,191.6 193.9,191.7 191.5,191.8 190.1,191.9 189.5,191.9 188.1,192 184.8,192.1 183.6,192.2 183.1,192.2 183.1,193.3 
	183.4,197.9 183.4,198 177.2,194.9 172.2,192.5 164.4,188.5 158.4,185.5 153.9,183.3 149.3,180.9 143.1,177.9 137.3,174.8 
	130.9,171.6 127.7,170 125.1,168.7 120.7,166.5 117.1,164.7 113.4,162.7 113,162.6 105.7,158.9 98.9,155.4 95.1,153.5 87.9,156.9 
	85.7,157.9 84.3,158.6 83.9,158.8 82.8,159.4 82.3,159.6 78.7,161.5 77.9,161.9 77.2,162.3 75.9,163 72.4,159.7 69.3,156.8 
	69.1,156.7 68.8,156.4 68.6,156.3 67.8,155.9 67.2,155.7 67,155.6 66.5,155.5 63.9,154.8 61.6,154.2 58.4,153.3 57.1,153 
	56.3,152.7 55.7,152.6 55.1,152.4 52.3,151.6 51.9,151.5 51.3,150.1 49.7,146.6 49.4,145.9 47.8,142.3 46.8,141.9 46.5,141.8 
	45.5,141.5 44.7,141.1 43.1,140.5 42,140.2 41.5,139.9 40.1,139.3 39.3,138.9 38.9,138.7 38.4,138.9 37.4,139.2 36.3,139.6 
	35.6,139.5 34.5,138.5 34,138 33.9,137.4 33.8,136.8 33.7,136.3 33.2,136 32.8,135.7 32,135.1 32,134.8 32,134 32.1,133.2 
	32.1,132.3 32.2,130 32.1,129.5 31.9,129 30.4,126.6 29.8,125.6 26.7,120.7 26.3,120 26,119.4 25.9,119.1 26,118.8 26.6,118.1 
	27.2,117.1 29,116.3 30,115.9 31.2,115.5 31.5,114.3 31.8,113.6 31.6,113.4 31.9,112.4 31.9,112.1 32.1,111.5 31.9,111.3 
	31.2,110.8 31.1,109.7 31.1,109.1 30.9,108.6 30.4,106.7 30.3,106 30.9,104.6 31.4,103.5 32,102.7 32.2,102.3 32.9,100.2 33.1,99.9 
	33.1,99.7 32.6,98.2 32,96.6 31.9,96.3 31.6,95.1 31.6,94.9 31.8,94.3 31.9,93.3 32.3,91.4 32.5,90.7 32.7,89.9 32.7,89.1 
	32.8,88.7 32.9,88.2 32.9,87 32.9,86.5 32.9,85.6 32.8,85.4 32.8,85.1 32.8,84.6 32.7,84.1 32.3,81.3 32.2,81.1 31.9,80.3 
	31.5,79.1 31.3,78.7 31.1,78.2 30.6,77.1 30.5,76.8 30.3,76.6 29.5,74.9 29,74.4 29,74.2 28.8,73.9 28.7,73.7 28.5,73.5 28.2,73.2 
	28.2,72.9 28.9,72.6 30.3,71.9 30.5,71.8 31.5,71.4 32.6,71 33.7,70.7 33.9,70.7 34.2,70.6 35.2,69.5 36.3,68 37.7,66.4 37.8,66.2 
	38.5,64.8 38.7,64.3 38.5,62.4 38.2,61 37.7,59.5 37.4,58.3 37.5,57.4 39.2,55.2 39.5,54.9 39.9,54.8 40.2,54.8 40.5,54.9 40.7,55 
	41.1,55 41.3,54.8 41.7,54.6 42.6,53.5 43.6,52.3 44.7,51.6 44.8,51.5 45.1,50.9 45.4,50.4 46.9,49.7 48.1,49.2 48.5,49.1 
	49.9,48.5 50.8,48.1 51.5,47.7 51.9,47.5 52.3,47.3 52.4,47.1 52.6,46.8 52.6,46.4 52.4,45.9 52.2,45.7 52,45.5 51.8,45.3 51.6,45 
	51.5,44.7 51.8,42.2 51.9,41.3 52.1,40.1 52.2,39.7 52.3,39.4 52.4,39.1 52.4,38.9 52.5,38.7 53.2,39.3 53.5,39.5 54.5,39.7 
	55.1,39.8 55.9,40 56.2,40.2 57,40.8 57.3,41.1 57.8,41.5 58.7,42.1 59.7,42.7 59.9,42.8 60.3,43 60.6,43.1 62,43.3 "/>
</svg>
