<?xml version="1.0" encoding="utf-8"?>
<!-- Generator: Adobe Illustrator 22.1.0, SVG Export Plug-In . SVG Version: 6.00 Build 0)  -->
<svg version="1.1" id="Layer_1" xmlns="http://www.w3.org/2000/svg" xmlns:xlink="http://www.w3.org/1999/xlink" x="0px" y="0px"
	 viewBox="0 0 220.2 220.3" style="enable-background:new 0 0 220.2 220.3;" xml:space="preserve">
<style type="text/css">
	.st0{fill:#3D7CC9;stroke:#3D7CC9;stroke-width:0.1;stroke-linecap:round;stroke-miterlimit:10;}
	.st1{fill:none;stroke:#872222;stroke-width:0.2;stroke-linecap:round;stroke-linejoin:round;}
	.st2{fill:none;stroke:#939598;stroke-width:0.2;stroke-linecap:round;stroke-linejoin:round;}
	.st3{fill:#9A2E22;stroke:#872222;stroke-width:0.5;}
</style>
<title>ssd</title>
<polygon class="st0" points="189.7,156.6 189.7,157.4 189.8,157.9 190.4,158.3 191.7,157.9 192.6,157.9 192.9,158.7 192.5,159.7 
	192.4,160.4 192.4,161.1 193.3,161.9 194.6,162.1 195.5,161.6 195.9,161.2 196.7,161.2 197.8,161.6 198.8,162 199.2,162.2 
	199.2,162.4 194.6,162.6 176.4,163.1 177.4,162.1 186.6,156.9 187.2,157.2 187.9,156.6 188.8,156.4 "/>
<polyline class="st1" points="171,168.9 171.4,169.1 171.8,169.4 171.9,169.6 172.3,170.7 173,172.8 173.9,174.4 174.4,175.2 
	176.5,175.8 176.7,175.9 178,176.8 178,177.5 177.9,178.9 177.6,179.2 177.1,179.5 177.2,180.9 178,183 178.8,184.4 179.4,184.7 
	179.6,184.9 179.8,185.3 180,186.3 180.2,187.4 181.3,188.5 181.5,188.4 181.9,188.2 182.6,188.6 183,189.5 183.1,190.7 
	183.2,191.1 184,192.3 185,193.4 184.6,195.1 184.6,195.5 184.7,195.8 185.2,196.9 185.6,197.7 186.4,199.7 186.7,202.5 
	186.7,205.8 186.2,207.1 185.9,207.3 185.5,207.4 185.3,207.5 185.1,207.9 184.9,208.3 184.8,209 184.6,209.4 183.8,209.9 
	183.8,209.9 183.9,210.8 184.2,211.1 184.3,211.4 184.3,211.8 184.2,212.3 183.9,212.5 183.4,212.6 183.1,212.6 182.3,212.7 
	181,213.6 180.6,214.5 179.8,214.3 179.6,214.7 179.4,215.2 179.3,215.7 179.4,216.1 179.3,216.5 178.7,217.8 178.3,218.6 
	177,220.2 "/>
<polyline class="st1" points="111.8,220.2 111.9,219.9 112,219.5 112.2,219.2 112.5,219.1 112.6,219 112.9,218.7 113.2,218.7 
	113.9,218.3 114.7,218.3 115,218.1 115.9,216.9 115.9,216.1 115.8,215.9 116.2,214.8 116.7,214.3 118.2,213.9 119.2,213.8 
	119.4,213.6 119.7,213.4 119.8,213.2 120.8,212 122.7,209.8 123,209.4 125.2,207.6 128,205.5 130.6,202.2 131.9,200.2 131.9,199.6 
	131.5,199.4 130.4,198.7 128.4,197.2 127.4,196.2 127.2,196 126.9,195.9 126.6,196.2 126.3,196.7 126.2,197 125.8,197.1 
	123.4,195.5 123.4,195.1 123.8,193.2 124.2,192.1 124.7,191.2 125.2,190.5 125.5,189.7 125.6,189.1 125.2,187.9 124.5,187.1 
	124,187 123.8,186.7 124.2,185.5 124.8,183.9 125.3,183.1 125.6,182.7 126.4,181.3 126.2,179.9 125.9,179.7 125.3,180.2 "/>
<polyline class="st2" points="125.3,180.2 125.4,179.8 125.7,179.1 126.7,177.5 127,177.2 129.9,175.8 130.2,175.7 131.4,175.7 
	132.8,176.4 134,177.1 135.2,177.8 137.6,176.8 138.2,176.2 138.8,175.5 139.3,175.5 139.8,175.8 141,177.2 141.1,178.2 
	141.2,178.6 142.3,178.6 143,178.7 143.1,179.1 143.3,179.4 143.6,179.5 143.9,179.6 144.8,179.7 144.9,178.8 144.9,178.2 
	147.9,176.3 149,176.3 151.2,176.1 151.7,176.1 152.4,176 153.6,175.7 154.7,175.3 155.1,175.2 155.6,174.8 156.2,174.4 156.7,174 
	158.4,175.2 159.2,175.8 160.1,175.8 162.2,175.9 164,175.9 164.2,175.8 171,168.9 "/>
<polyline class="st2" points="171,168.9 172.3,167.5 176.4,163.1 194.6,162.6 199.2,162.4 "/>
<polyline class="st1" points="0.1,168.3 0.2,168.3 1.1,168.4 1.6,168.4 2.2,168.3 2.7,168.3 3.3,167.8 3.9,167.2 4.4,165.6 
	4.7,164.4 4.8,163.9 5,163.5 5.4,163.4 5.9,163.5 6.2,163.5 6.9,162.2 7.3,161.1 7.8,160.2 8.7,160.1 9.4,158.7 10.6,158.6 
	11,159.2 11.2,159.8 12.3,160.5 14,160.9 15.6,162.2 16.4,162.3 17.1,162.3 17.1,161.8 17.3,161.5 19.4,160.4 23,159.3 23.9,159.2 
	26.5,158.2 28.3,157.7 29.1,157.5 31,156.8 31.4,156.4 30.8,156.1 31.3,155.3 32.3,155.4 32.6,155.5 33.3,155.9 34.4,156.7 
	34.9,157.5 36.3,158.4 36.9,158.3 37.5,158 39.4,157.4 39.8,157.4 40,157.5 41.4,157.6 42.7,157.4 43.5,157.2 44.3,157 44.7,156.7 
	45.1,155.8 45.2,155.3 45,155.1 44.7,154.8 44.7,154.5 45.1,153.5 45.5,152.8 48.1,151.9 48.7,152.2 49.5,153.1 50.6,153.5 
	52,154.2 53.1,154.8 53.4,155 55.1,154.9 55.6,154.8 56,154.7 56.3,154.3 56.6,154.1 57.5,154.3 60.4,155.9 61.1,156.5 61.4,156.9 
	61.8,157.1 62.2,157.2 63.7,156.8 64.5,156.6 65.1,156.5 65.7,156.6 66.2,157.1 67.2,157.5 67.4,157 67.9,156.4 68.3,155.9 
	69.3,155.4 69.6,155.2 70.2,155.1 70.5,155 71.2,155.1 73.7,156.2 75,156.8 75.3,157.1 75.8,157.8 "/>
<polyline class="st2" points="75.8,157.8 76.7,158.9 78.7,159.6 80.2,161.1 80.5,161.6 80.3,162.5 80.2,163 80.5,163.9 81.6,164.6 
	82.6,164.7 84,165.4 84.8,166.4 86.5,167.6 88.8,168.5 90.5,167.9 90.7,167.6 90.9,167.3 92.1,166.9 92.8,166.7 93.1,166.6 
	93.4,166.1 93.6,165.7 93.7,165.3 93.9,165 95,164.7 95.3,165.2 95.2,165.5 95.6,165.8 96.5,165.9 97.8,165.8 98.3,165.5 100,166.8 
	100.4,167.2 101.1,167.9 101.7,167.8 102.8,167.1 104.4,165.2 104.9,164.3 104.9,163.6 105,163.1 105.3,162.9 107.1,163.3 
	107.4,163.5 108.3,163.9 109.9,164.7 109.8,165.6 109.8,166 109.7,166.5 109.8,167.4 110.3,167.8 112.1,168.6 112.5,169.5 
	113.6,170.9 113.8,171.1 114.4,171.1 114.8,171.4 115.1,172.2 115.7,173.4 116.2,173.5 116.7,173.4 117.6,173.7 117.9,173.9 
	119.1,174.5 119.9,174.8 120.4,174.7 120.7,174.8 121.2,177.1 121.2,177.6 121.1,178 120.9,178.4 121.4,178.6 121.9,178.5 
	123.4,178.1 124.2,177.8 125.1,179.7 125.3,180.2 "/>
<polyline class="st1" points="12.8,71.5 13,71.8 13.3,72.3 13.9,73.2 14.7,74.7 15.4,75.2 18.7,78.3 18.9,78.7 21.7,83.7 23.5,86.8 
	23.7,89.7 23.2,90.7 23.1,90.9 22.6,91.5 22.9,92.9 23.1,93 22.9,95.2 21.6,96.5 21.3,96.6 20.7,96.6 20.4,97 20.4,97.2 19.9,98.8 
	20,99.2 20.4,99.5 20.7,99.7 21.1,99.7 21.5,99.1 21.8,99.2 21.7,100.4 21.5,101 21.1,101.5 20.6,101.9 20.4,102.3 20.9,103.3 
	21.3,103.3 23.9,103.5 24.2,103.3 24.4,103.2 25.1,103.1 26.5,103.4 27.8,103.6 28.3,103.8 28.7,103.9 29.5,103.9 30,103.8 
	30.4,103.9 31.3,105.4 30.9,105.7 30.4,106.2 29.8,107 29.4,108.3 29.5,108.7 29.6,109 29.9,109.3 30.4,109.5 30.6,109.7 
	30.9,109.8 32.1,110 34.1,110.5 36.2,110.8 36.7,110.8 37.5,111 38.7,111.3 39.3,111.5 39.6,111.8 40.6,112.8 40.7,113.1 
	40.7,113.5 41,114 41.6,114.7 42.2,115.2 42.6,115.6 43,115.7 43.4,115.6 44,115.6 44.6,116 45,116.4 45.5,117.4 45.5,118.7 
	45.5,119.3 45.1,119.5 44.7,119.6 44,119.9 43.9,120.2 44.1,121.1 44.3,121.5 45.1,121.7 45.9,122.5 46.1,122.8 46.2,123.2 
	46.4,123.6 47.6,124.3 50,125.6 51.5,126.3 53.2,127.2 55.1,128.6 56,129.4 56,129.8 56.2,130.3 56.7,131.1 57,131.4 59.1,133.1 
	59.8,133.2 60.4,133.5 61,134 61.1,134.2 60.4,134.9 59.7,136.2 59.5,136.6 59.5,137.7 60.5,138.3 61.6,139.1 62.7,140.2 
	62.7,140.6 62.5,140.9 62.2,141.1 61.7,141.5 61.4,141.9 61.4,142.2 63.1,143 63.8,143.1 64.7,143.3 65.1,143.1 65.6,143.3 
	66.7,143.8 66.8,144 66.9,144.7 67.2,145 68.3,145.4 69.1,145.5 71,146.5 71.4,146.8 72.2,147.8 72.8,148.7 73.3,149.5 73.3,150.1 
	73,150.7 72.7,151.9 72.9,153.2 73.2,153.9 73.5,154.7 73.8,155 74.5,155.5 75,155.9 75.9,157 75.8,157.7 75.8,157.8 "/>
<polyline class="st1" points="0.1,73.5 0.7,73.1 4.1,71.2 5.3,70.8 5.8,70.7 6.5,70.6 6.8,70.2 7.2,70.1 10.2,70.7 12.3,71.3 
	12.8,71.5 "/>
<polyline class="st1" points="202.4,24.7 202.6,24.3 203.8,23.9 205,23.6 206.2,23.6 207.1,23.7 208,24 208.7,24.4 209.7,24 
	209.9,23.6 209.9,23.1 209.9,22.8 210,22.5 210.3,22 211.3,21.6 212.5,21.5 213.2,21.9 214,22.8 214.6,24.1 215.9,25.2 220.1,16.5 
	"/>
<polyline class="st1" points="199.2,162.4 199.2,162.2 198.8,162 198.8,161.9 196.6,159.8 196.5,155.7 196.8,155.3 197.1,154.9 
	197.2,154.4 196.8,153.9 196.6,153.5 196.7,153 197,152.1 196.6,152.1 196.3,152 196,151.9 195.6,151.6 192.7,150.8 192.3,150.7 
	191.4,150.9 191.1,151.3 190.2,152 189.8,151.9 189.4,151.6 189,150.7 189,150.5 189.3,150 189.2,149.8 186.5,148 186.5,147.2 
	185.3,145.5 184.6,144.6 184.5,143.3 184.6,142.6 184.5,141.9 184.3,141.5 184.1,141.3 183.6,140.9 182.8,139.5 182.6,139 
	182.6,138.7 182.5,137.6 181.1,134.1 180.2,133.1 179.9,132.9 179.5,132.7 179.2,132.5 178.8,132.4 178.1,132.4 177.7,132.3 
	177,130.4 176.8,129.9 176.2,129.5 175.2,129.3 174.7,129.3 174.3,129.2 174.1,129.1 173.4,128.4 173.2,128.1 172.8,127.5 
	172.3,126.3 171.4,125.9 170.3,125.2 170.3,124.8 170.4,124.4 170.3,123.4 168.2,121.3 165.7,119.5 164.7,119.1 162.2,118.3 
	161.8,118.3 159.2,118.1 156.9,117.9 156.2,117.8 155.7,117 155.4,116.4 155.4,115.9 155.9,114.8 157.1,113.3 157.7,113.1 
	158.1,112.7 157.9,111.5 157.7,110.7 157.6,109.6 157.8,109.1 159.1,108.1 159.9,108.2 160.7,108.4 162.6,108 164.3,107.9 
	164.9,108.3 165.1,108.9 165.5,109.2 166.3,109.3 166.6,109.1 167,108.7 167.4,108.4 167.9,108.3 168.3,108.3 169.1,108.3 
	169.5,107.9 170.5,107 171,106.5 171.2,106.2 171.2,106.1 171.2,105.4 171.3,102.9 171.3,100.8 170.6,94.7 170.6,94.2 170.6,93.7 
	170.5,93.7 170.4,92.3 171.1,89.4 171.9,87.3 172.1,86.2 172.2,85.5 173.5,84.2 173.9,82.5 173.7,81.9 173.5,80.9 172.8,78 
	173.2,77.5 173.8,76.9 174.9,74.7 177,73.1 178.2,73.9 178.7,74.3 179.5,75.1 180,75.5 180.8,75.3 182.4,73.4 182.4,72.7 
	181.8,72.1 182.4,69.9 182.6,69 182.6,68.6 182.2,68.3 182.2,68.2 182.1,67.9 182.1,67.5 182.3,66.9 182.6,66.5 182.6,66.2 
	183.7,63.8 183.8,63.2 183.7,62.9 183.4,62.6 183.3,62.3 183.1,61.1 183.2,60.7 183.4,60 183.7,59.5 183.9,59.4 184.2,59.1 
	184.6,58.9 185.1,58.8 185.5,58.7 185.8,58.3 185.9,58.1 186.2,57.4 187.5,54.7 191,48.7 191.4,48.5 191.7,48.2 191.7,47.5 
	195.3,46.7 195.9,46.7 196.3,46.7 196.8,46.6 197,46.8 197.4,47 197.8,46.7 197.9,44.3 197.5,43.7 197.6,43.3 197.8,43.1 
	197.9,42.7 197.8,42.2 198.9,37.4 200.2,35.5 200.3,35.2 200.8,34.5 201,34.1 201,33.9 200.9,33.5 200.9,33.2 201.1,32.8 
	201.7,31.1 201.9,30.7 201.3,29 202.4,24.9 202.4,24.7 "/>
<polyline class="st1" points="202.4,24.7 202.4,24.4 201.9,22 200.7,13.4 200.6,12.3 201.1,11.8 201.9,11 202.2,10 202.7,8.1 
	202.9,7.4 203.4,5 203.7,3.7 204.6,2.8 205.3,0.4 205.4,0.1 "/>
<path class="st1" d="M12.8,71.5l0.4-0.8l1.3-3.2v-1L14,64.6l-2-0.4L10.1,63l-0.2-0.3l-0.1-0.2l-0.6-0.8L9,61.2l-0.1-0.5l0.3-1.9
	l0.5-1.8l0.2-0.9L9.3,55l-0.8-1.4l-0.7-2.6l-0.4-2l0.9-1.8l-1.8-1l-1.4-1.1l-0.4,0.5l-0.6,0.6l-0.2,0.2l-0.3,0.1l-0.6,0.1H1.5
	l-0.3-0.2l-0.4-0.2l-0.2-0.2l-0.2-0.4l-0.3-0.5 M0.1,43.2l0.5-1.1l0.7-1.3l1.3-1.2l0.6-0.1l1.2-0.5L6,37.2L6.3,37l0.2-0.5l-0.9-1.8
	l-1.1-2.5l-0.6-1.6l1.7-2l0.5-0.6l1.2-0.6l0.7-0.2l0.9-0.2l1.8-1l0.2-0.6l-0.2-0.9l-0.6-0.2l-0.8-1.3l0.1-0.7v-1.3l-0.1-0.3
	l-0.7-0.5v-0.5l0.2-0.4l0.2-0.2l0.7-0.4l0.4-0.1l2.8-0.8l-0.2-0.8l-0.1-0.7v-0.6l1.2-1.7l0.5-0.6l0.9-0.8l0.4-0.3l0.2-0.1l0.5-0.1
	l0.7-1.3l0.2-0.3l0.1-0.7l0.2-0.8V8.8l-0.2-0.6l-0.6-0.8l-0.2-0.3V6.4l0.2-0.3L19,4.2h0.9l1,0.2l0.9,0.2l0.3,0.1h0.6l0.4-0.1
	l0.3-0.2l0.4-0.2L24,4.1l0.7-0.2l0.5-0.1l0.6-0.1h0.8L28.4,4l0.9,0.2l1.1,0.4l0.3,0.1h0.3l0.1-1.8"/>
<polyline class="st1" points="199.2,162.4 199.3,163.7 199.5,163.9 200.7,164.7 203.1,164.7 203.8,164.7 204,164.7 206.3,164.6 
	209.4,164.4 209.8,164.6 210.4,164.6 213,164.4 215.2,165.2 216.1,165.8 216.6,166.4 218.8,167.7 220.1,168.4 "/>
<polyline class="st2" points="170.7,93 169.5,93 168.8,93 168.2,93 167.8,93 167.8,92.8 167.8,92.4 167.6,92.3 167.6,92.1 
	167.8,92.1 167.6,91.9 167.6,91.7 167.6,91.5 167.6,91.3 167.8,91.3 167.8,91.1 167.8,90.7 167.8,90.5 168,90.3 168,90.2 168,90 
	168,89.8 168,89.6 168,89.4 168.2,89.4 168.4,89.2 168.6,89.2 168.6,89 168.6,88.8 168.8,88.8 168.8,88.6 168.8,88.4 168.8,88.2 
	168.8,88 168.8,87.8 168.9,87.8 168.8,87.7 168.9,87.7 168.9,87.5 169.1,87.3 169.1,87.1 169.1,86.9 168.9,86.9 168.9,86.7 
	168.9,86.5 168.9,86.3 169.1,86.1 169.1,85.9 169.1,85.7 168.9,85.5 168.9,85.3 169.1,85.2 168.9,85 168.9,84.8 168.8,84.8 
	168.8,84.6 168.8,84.4 168.6,84.4 168.6,84.2 168.6,84 168.8,84 168.6,83.8 168.4,83.6 168.2,83.6 168,83.6 167.8,83.6 167.6,83.6 
	167.6,83.4 167.4,83.2 167.2,82.9 166.4,81.7 166.2,81.3 166.1,81.3 165.7,80.9 165.1,80.6 164.3,79.8 162.4,77.7 161.6,76.7 
	161.3,76.7 159.9,76.3 158,75.8 158.2,75 158.6,74.4 158.2,72.9 158,72.1 158.2,71.9 157.6,69 157.4,68.5 156.8,65.2 156.8,65 
	156.6,64.4 156.6,63.8 156.5,63.1 157,61.5 157,61.2 157.2,61 157.6,57.9 157.8,57.5 157.8,56.9 158,56.2 158,55.6 158.2,55.4 
	158.4,55.2 158.4,55 158.6,55 158.6,54.8 158,54.8 154.7,54.6 153,54.6 150.9,54.6 150.7,54.6 150.7,54.8 150.9,54.8 150.9,55 
	150.9,55.2 150.9,55.4 150.9,55.6 150.9,55.8 150.9,56.2 151.1,56.6 151.1,56.8 151.1,56.9 151.1,57.1 151.1,57.3 151.1,57.5 
	151.1,57.7 151.1,57.9 151.1,58.3 151.1,58.5 151.1,58.7 150.9,58.7 147.2,58.9 142.1,58.9 145.7,61.9 145.9,62.1 146.1,62.3 
	146.1,62.5 146.1,62.7 146.1,63.1 146.1,63.5 146.1,64.1 146.3,68.3 146.3,68.7 146.3,69 146.3,69.4 146.3,69.8 146.5,70 
	146.5,70.2 146.7,70.6 146.9,70.8 147.1,70.9 147.4,71.5 147.2,71.7 146.9,71.9 146.7,72.1 146.1,72.7 144.6,74.2 143.2,75.6 
	143.2,75.8 142.8,75.9 142.2,76.3 141.7,76.7 140.9,77.1 140.7,77.1 140.5,77.5 140.3,77.9 140.1,78.1 140.1,78.2 139.6,79.2 
	139.2,80.2 138.8,80.7 138.4,81.5 138.2,81.9 137.8,82.3 137.6,82.5 137.4,82.7 137.3,82.9 137.1,83.1 136.7,83.4 134.6,85.9 
	134,86.5 133.2,87.7 132.8,88 132.6,88.4 132.3,88.6 132.1,89 131.9,89.4 131.7,89.6 131.5,89.8 131.3,89.8 131.1,89.8 130.9,90 
	130.7,90 130.5,90 130.3,90.2 130,90.2 129.8,90.2 129.4,90.2 128.6,90.2 125.3,90.2 125.2,90.3 125,90.5 124.8,90.5 124.6,90.5 
	124.4,90.5 124,90.3 124,90.2 123.8,90.2 123.8,90 122.8,89.4 122.5,89 121.9,88.6 121.1,87.8 120.4,87.3 120.2,87.3 120,87.1 
	119.4,86.7 116.7,85 116.3,84.8 115,84 113.6,83.1 112.7,82.5 111.9,82.5 110.8,83.2 109.8,83.6 108.1,84.6 106.3,85.5 106.3,86.5 
	106.3,90.2 101.9,90.2 100.4,90.2 100.2,90.2 100,90.2 99.8,90.2 99.6,90.3 99.4,90.3 99.4,90.5 99.2,90.5 99.2,90.7 99,90.7 
	98.8,90.9 98.8,91.1 98.7,91.3 98.5,91.5 98.3,91.7 98.1,91.9 97.7,92.3 97.5,92.4 97.1,92.6 96.9,93 96.7,93.2 96.3,93.6 
	96.2,93.6 96,93.8 95.8,94 95.8,94.2 95.8,94.4 95.6,94.4 95.6,94.6 95.4,94.8 95.4,94.9 95.2,94.9 95.2,95.1 95.4,95.9 95.2,95.9 
	93.5,95.9 92.1,95.9 89.6,95.7 88.3,95.7 85,95.7 85,95.9 84.8,95.5 84.2,94 83.3,92.1 82.7,92.1 82.5,92.1 82.3,92.1 82.1,92.1 
	81.9,92.1 81.8,92.1 81.4,92.1 81.2,92.1 80.6,92.1 79.8,91.9 78.9,91.9 78.1,91.9 77.7,91.9 77.2,91.7 77,91.7 76,91.7 75,91.7 
	73.7,91.7 72.9,91.7 72.3,91.7 71.6,91.9 71,91.9 70.6,91.9 70.4,92.1 70.2,92.1 70,92.1 69.3,92.4 68.7,92.6 68.5,92.8 68.3,92.8 
	67.7,93 67.4,93.2 66.8,93.4 66.6,93.4 66.2,93.4 65.8,93.4 65.6,93.4 65.4,93.2 65.2,93.2 65.1,93.2 64.9,93.2 64.7,93.2 64.3,93 
	64.1,93 63.5,92.8 62.9,92.6 62.8,92.6 62.6,92.4 62.4,92.4 62,92.3 61.8,92.3 61.6,92.1 61.4,92.1 61.2,91.9 61,91.5 60.8,91.3 
	60.6,91.3 60.6,90.9 60.5,90.5 60.2,90 60.1,89.6 59.5,87.5 59.5,87.3 59.3,87.3 58.1,86.1 58.1,85.9 58,85.9 58,85.7 57.8,85.3 
	57.6,85 57.4,84.8 57.4,84.6 57.2,84.4 57,84.2 56.8,84 56.6,83.8 56.4,83.8 56.2,83.6 56,83.6 56,83.4 55.8,83.4 55.6,83.4 
	55.5,83.4 55.5,83.2 55.5,82.5 55.6,81.7 55.6,80.6 55.5,80.4 55.5,80.2 55.3,80.2 55.3,80 55.1,80 54.9,79.8 54.7,79.8 54.5,79.8 
	54.5,79.6 54.3,79.8 54.1,79.8 53.9,79.8 53.7,79.8 53.7,80 53.5,80 53.3,80 53.2,80 53.2,80.2 53,80.2 53,80 52.8,80 52.6,80 
	52.4,80 52.2,80.2 52,80.2 51.8,80.2 51.6,80.2 51.4,80.2 51.2,80.2 51,80.2 51,80.4 50.8,80.4 50.7,80.4 50.7,80.6 50.5,80.6 
	50.3,80.6 50.1,80.6 50.1,80.7 49.9,80.7 49.9,80.6 49.7,80.6 49.5,80.6 49.3,80.6 49.1,80.6 48.9,80.4 48.9,80.6 48.7,80.6 
	48.5,80.6 48.3,80.6 48.2,80.6 48,80.6 47.8,80.6 47.6,80.7 47.4,80.7 47.4,80.9 47.2,80.9 47,80.9 47,80.7 46.8,80.9 46.6,80.9 
	46.4,80.9 46.4,80.7 46.2,80.7 46.2,80.9 46,80.7 45.8,80.7 45.7,80.7 45.5,80.9 45.5,80.7 45.3,80.9 45.1,80.9 45.1,81.1 
	44.9,81.1 44.9,80.9 44.7,80.9 44.5,80.9 44.3,80.9 44.3,81.1 44.1,81.1 43.9,81.1 43.9,81.3 43.7,81.3 43.7,81.5 43.7,81.7 
	43.5,81.7 43.5,81.9 43.3,82.1 43.3,82.3 43.2,82.3 43.2,82.5 43.2,82.7 43,82.7 43,82.9 43,83.1 42.8,83.1 42.8,83.2 43,83.2 
	43,83.4 43.2,83.6 43.2,83.8 43.2,84 43.2,84.2 43,84.2 43,84.4 42.8,84.6 42.8,84.8 42.8,85 42.8,85.2 42.6,85.2 42.6,85 42.4,85 
	42.4,85.2 42.4,85.3 42.4,85.5 42.2,85.5 42.2,85.7 42,85.7 42,85.9 41.8,85.9 41.8,86.1 41.6,86.3 41.6,86.5 41.4,86.5 41.2,86.7 
	41,86.7 41,86.9 40.9,86.9 40.7,87.1 40.5,87.3 40.3,87.3 40.1,87.3 40.1,87.5 39.9,87.7 39.7,87.8 39.7,88 39.5,88.2 39.5,88.4 
	39.3,88.4 39.3,88.6 39.1,88.6 38.9,88.6 38.9,88.8 38.7,88.8 38.5,88.8 38.5,89 38.4,89 38.2,89.2 38.4,89.2 38.4,89.4 38.5,89.4 
	38.5,89.6 38.5,89.8 38.5,90 38.5,90.2 38.5,90.3 38.4,90.5 38.4,90.7 38.4,90.9 38.5,90.9 38.5,91.1 38.5,91.3 38.7,91.3 
	38.7,91.5 38.5,91.7 38.7,91.7 38.7,91.9 38.5,92.1 38.5,92.3 38.7,92.3 38.5,92.4 38.5,92.6 38.4,92.8 38.2,93 38,93 38,93.2 
	37.8,93.2 37.6,93.4 37.4,93.6 37.2,93.8 37,93.8 36.8,94 36.6,94 36.6,94.2 36.5,94.2 36.5,94.4 36.5,94.6 36.5,94.8 36.6,94.8 
	36.8,94.9 36.8,95.1 36.6,95.1 36.6,95.3 36.5,95.5 36.5,95.7 36.5,95.9 36.2,95.9 36.2,96.1 36,96.3 36,96.5 35.9,96.7 35.9,97.1 
	35.9,97.2 35.7,97.4 35.7,97.6 35.7,97.8 35.5,98 35.5,98.2 35.5,98.4 35.5,98.6 35.5,98.8 35.5,99 35.5,99.2 35.7,99.4 35.7,99.6 
	35.7,99.8 35.9,99.9 35.9,100.1 35.9,100.3 35.9,100.5 35.9,100.7 35.3,101.7 35.1,101.9 34.9,101.9 34.5,102.1 33.8,102.2 
	33.6,102.4 33.2,102.4 33,102.4 33,102.6 32.6,103 31.6,103.8 31.1,104.4 31.1,104.6 30.9,104.7 "/>
<polygon class="st3" points="197.4,160 197,155.6 197,155.2 197.8,154.6 197.6,154.1 197.4,153.5 197.2,153.1 197.6,152.7 
	197.8,152.3 197.4,152.1 197.2,151.9 196,151.6 195.1,151.2 194.7,151.2 194.3,151.6 193.9,151.2 193.7,151 193.5,151 193.3,151 
	193.1,150.8 192.4,150.8 192.2,150.8 192,150.8 191.8,150.8 191.4,151 191.2,151.2 191.2,151.4 190.6,151.6 190.4,151.9 
	189.7,151.8 189.5,151.6 189.5,151 189.7,150.6 189.7,150.2 189.7,150 189.3,149.8 186.6,147.9 187,147.4 185.3,144.5 184.9,144.5 
	184.9,144.3 184.9,144.1 184.9,143.9 184.9,143.7 184.7,143.7 184.7,143.5 184.5,143.3 184.7,143.1 184.7,142.9 185.1,142.7 
	184.9,142.2 184.9,141.8 184.9,141.6 184.7,141.6 184.5,141.4 184.5,141.2 184.3,141 184.3,140.8 184.5,140.4 184.5,140.2 
	184.5,139.9 184.3,139.5 184.1,139.3 184.1,138.9 184.1,138.7 184.3,138.7 184.5,138.7 184.5,138.5 184.7,138.5 184.7,138.3 
	184.7,138.1 184.7,137.9 184.7,137.8 184.7,137.6 184.7,137.2 184.7,137 184.9,137 184.9,136.6 185.1,136.6 185.1,136.4 184.9,136 
	184.7,136 184.5,135.8 184.3,135.6 184.3,135.4 184.1,135.6 184.1,135.3 183.9,135.3 183.9,135.1 183.7,134.9 183.5,134.9 
	183.3,134.7 183.3,134.5 183.1,134.5 182.9,134.5 182.9,134.3 182.6,134.1 182.4,134.1 182.2,134.3 182,134.1 182,134.3 
	181.8,134.3 181.6,134.5 181.6,134.3 181.4,134.3 181.2,134.3 181.2,134.1 181,133.9 180.7,133.7 180.3,133.1 179.7,132.6 
	179.1,132.4 178.2,132.4 177.8,132.2 177.8,131.6 177.4,131.4 177.4,131 177,129.9 176.6,129.7 176.2,129.5 175.5,129.3 
	174.7,129.3 174.1,128.9 173.9,128.5 173.6,128.4 173.4,128.1 173,128 173,127.4 173,127 172.8,126.2 172.4,126.2 172,126.4 
	171.6,126.2 171.4,125.8 171.2,125.8 171.1,125.5 170.5,125.3 170.5,124.3 170.3,123.9 170.5,123.4 169.5,122.4 169.5,122.2 
	168,121.1 167.2,120.9 167,120.9 166.4,120.1 165.9,119.5 165.5,119.3 164.9,119.1 163.9,119.1 163.4,118.9 163.2,118.6 
	162.6,118.6 162.2,118.4 161.4,118.4 160.5,118.8 159.3,118.4 159.1,117.8 158.8,117.8 158,117.6 157.2,117.8 156.3,117.6 
	156.3,117.4 155.9,117 155.5,115.9 155.5,115.7 155.9,115.3 155.9,114.9 156.1,114.7 156.5,114.3 156.6,113.9 156.8,113.8 
	157,113.4 157.8,113.2 158.2,112.8 158.2,112.6 158,112.2 157.8,111.8 158,111.6 158.4,111.4 158.4,111.3 157.8,110.5 158,109.9 
	157.8,109.5 157.8,109.2 158,109 158.4,108.8 158.4,108.6 158.8,108.6 159.1,108 159.9,108.2 160.9,108.4 161.4,108.2 161.6,108.2 
	162,108 162.6,108 162.6,107.8 162.8,107.8 163,107.8 163.4,108 163.6,108.2 164.3,107.8 164.9,108.4 165.3,109 165.7,109.2 
	166.4,109.3 167,108.8 167.4,108.4 168.9,108.4 169.3,108.2 171.2,106.1 171.4,100.7 171.4,100.5 170.9,96.3 170.9,96.1 170.7,93.2 
	170.7,93 169.5,93 168.8,93 168.2,93 167.8,93 167.8,92.8 167.8,92.4 167.6,92.3 167.6,92.1 167.8,92.1 167.6,91.9 167.6,91.7 
	167.6,91.5 167.6,91.3 167.8,91.3 167.8,91.1 167.8,90.7 167.8,90.5 168,90.3 168,90.2 168,90 168,89.8 168,89.6 168,89.4 
	168.2,89.4 168.4,89.2 168.6,89.2 168.6,89 168.6,88.8 168.8,88.8 168.8,88.6 168.8,88.4 168.8,88.2 168.8,88 168.8,87.8 
	168.9,87.8 168.8,87.7 168.9,87.7 168.9,87.5 169.1,87.3 169.1,87.1 169.1,86.9 168.9,86.9 168.9,86.7 168.9,86.5 168.9,86.3 
	169.1,86.1 169.1,85.9 169.1,85.7 168.9,85.5 168.9,85.3 169.1,85.2 168.9,85 168.9,84.8 168.8,84.8 168.8,84.6 168.8,84.4 
	168.6,84.4 168.6,84.2 168.6,84 168.8,84 168.6,83.8 168.4,83.6 168.2,83.6 168,83.6 167.8,83.6 167.6,83.6 167.6,83.4 167.4,83.2 
	167.2,82.9 166.4,81.7 166.2,81.3 166.1,81.3 165.7,80.9 165.1,80.6 164.3,79.8 162.4,77.7 161.6,76.7 161.3,76.7 159.9,76.3 
	158,75.8 158.2,75 158.6,74.4 158.2,72.9 158,72.1 158.2,71.9 157.6,69 157.4,68.5 156.8,65.2 156.8,65 156.6,64.4 156.6,63.8 
	156.5,63.1 157,61.5 157,61.2 157.2,61 157.6,57.9 157.8,57.5 157.8,56.9 158,56.2 158,55.6 158.2,55.4 158.4,55.2 158.4,55 
	158.6,55 158.6,54.8 158,54.8 154.7,54.6 153,54.6 150.9,54.6 150.7,54.6 150.7,54.8 150.9,54.8 150.9,55 150.9,55.2 150.9,55.4 
	150.9,55.6 150.9,55.8 150.9,56.2 151.1,56.6 151.1,56.8 151.1,56.9 151.1,57.1 151.1,57.3 151.1,57.5 151.1,57.7 151.1,57.9 
	151.1,58.3 151.1,58.5 151.1,58.7 150.9,58.7 147.2,58.9 142.1,58.9 145.7,61.9 145.9,62.1 146.1,62.3 146.1,62.5 146.1,62.7 
	146.1,63.1 146.1,63.5 146.1,64.1 146.3,68.3 146.3,68.7 146.3,69 146.3,69.4 146.3,69.8 146.5,70 146.5,70.2 146.7,70.6 
	146.9,70.8 147.1,70.9 147.4,71.5 147.2,71.7 146.9,71.9 146.7,72.1 146.1,72.7 144.6,74.2 143.2,75.6 143.2,75.8 142.8,75.9 
	142.2,76.3 141.7,76.7 140.9,77.1 140.7,77.1 140.5,77.5 140.3,77.9 140.1,78.1 140.1,78.2 139.6,79.2 139.2,80.2 138.8,80.7 
	138.4,81.5 138.2,81.9 137.8,82.3 137.6,82.5 137.4,82.7 137.3,82.9 137.1,83.1 136.7,83.4 134.6,85.9 134,86.5 133.2,87.7 
	132.8,88 132.6,88.4 132.3,88.6 132.1,89 131.9,89.4 131.7,89.6 131.5,89.8 131.3,89.8 131.1,89.8 130.9,90 130.7,90 130.5,90 
	130.3,90.2 130,90.2 129.8,90.2 129.4,90.2 128.6,90.2 125.3,90.2 125.2,90.3 125,90.5 124.8,90.5 124.6,90.5 124.4,90.5 124,90.3 
	124,90.2 123.8,90.2 123.8,90 122.8,89.4 122.5,89 121.9,88.6 121.1,87.8 120.4,87.3 120.2,87.3 120,87.1 119.4,86.7 116.7,85 
	116.3,84.8 115,84 113.6,83.1 112.7,82.5 111.9,82.5 110.8,83.2 109.8,83.6 108.1,84.6 106.3,85.5 106.3,86.5 106.3,90.2 
	101.9,90.2 100.4,90.2 100.2,90.2 100,90.2 99.8,90.2 99.6,90.3 99.4,90.3 99.4,90.5 99.2,90.5 99.2,90.7 99,90.7 98.8,90.9 
	98.8,91.1 98.7,91.3 98.5,91.5 98.3,91.7 98.1,91.9 97.7,92.3 97.5,92.4 97.1,92.6 96.9,93 96.7,93.2 96.3,93.6 96.2,93.6 96,93.8 
	95.8,94 95.8,94.2 95.8,94.4 95.6,94.4 95.6,94.6 95.4,94.8 95.4,94.9 95.2,94.9 95.2,95.1 95.4,95.9 95.2,95.9 93.5,95.9 
	92.1,95.9 89.6,95.7 88.3,95.7 85,95.7 85,95.9 84.8,95.5 84.2,94 83.3,92.1 82.7,92.1 82.5,92.1 82.3,92.1 82.1,92.1 81.9,92.1 
	81.8,92.1 81.4,92.1 81.2,92.1 80.6,92.1 79.8,91.9 78.9,91.9 78.1,91.9 77.7,91.9 77.2,91.7 77,91.7 76,91.7 75,91.7 73.7,91.7 
	72.9,91.7 72.3,91.7 71.6,91.9 71,91.9 70.6,91.9 70.4,92.1 70.2,92.1 70,92.1 69.3,92.4 68.7,92.6 68.5,92.8 68.3,92.8 67.7,93 
	67.4,93.2 66.8,93.4 66.6,93.4 66.2,93.4 65.8,93.4 65.6,93.4 65.4,93.2 65.2,93.2 65.1,93.2 64.9,93.2 64.7,93.2 64.3,93 64.1,93 
	63.5,92.8 62.9,92.6 62.8,92.6 62.6,92.4 62.4,92.4 62,92.3 61.8,92.3 61.6,92.1 61.4,92.1 61.2,91.9 61,91.5 60.8,91.3 60.6,91.3 
	60.6,90.9 60.5,90.5 60.2,90 60.1,89.6 59.5,87.5 59.5,87.3 59.3,87.3 58.1,86.1 58.1,85.9 58,85.9 58,85.7 57.8,85.3 57.6,85 
	57.4,84.8 57.4,84.6 57.2,84.4 57,84.2 56.8,84 56.6,83.8 56.4,83.8 56.2,83.6 56,83.6 56,83.4 55.8,83.4 55.6,83.4 55.5,83.4 
	55.5,83.2 55.5,82.5 55.6,81.7 55.6,80.6 55.5,80.4 55.5,80.2 55.3,80.2 55.3,80 55.1,80 54.9,79.8 54.7,79.8 54.5,79.8 54.5,79.6 
	54.3,79.8 54.1,79.8 53.9,79.8 53.7,79.8 53.7,80 53.5,80 53.3,80 53.2,80 53.2,80.2 53,80.2 53,80 52.8,80 52.6,80 52.4,80 
	52.2,80.2 52,80.2 51.8,80.2 51.6,80.2 51.4,80.2 51.2,80.2 51,80.2 51,80.4 50.8,80.4 50.7,80.4 50.7,80.6 50.5,80.6 50.3,80.6 
	50.1,80.6 50.1,80.7 49.9,80.7 49.9,80.6 49.7,80.6 49.5,80.6 49.3,80.6 49.1,80.6 48.9,80.4 48.9,80.6 48.7,80.6 48.5,80.6 
	48.3,80.6 48.2,80.6 48,80.6 47.8,80.6 47.6,80.7 47.4,80.7 47.4,80.9 47.2,80.9 47,80.9 47,80.7 46.8,80.9 46.6,80.9 46.4,80.9 
	46.4,80.7 46.2,80.7 46.2,80.9 46,80.7 45.8,80.7 45.7,80.7 45.5,80.9 45.5,80.7 45.3,80.9 45.1,80.9 45.1,81.1 44.9,81.1 
	44.9,80.9 44.7,80.9 44.5,80.9 44.3,80.9 44.3,81.1 44.1,81.1 43.9,81.1 43.9,81.3 43.7,81.3 43.7,81.5 43.7,81.7 43.5,81.7 
	43.5,81.9 43.3,82.1 43.3,82.3 43.2,82.3 43.2,82.5 43.2,82.7 43,82.7 43,82.9 43,83.1 42.8,83.1 42.8,83.2 43,83.2 43,83.4 
	43.2,83.6 43.2,83.8 43.2,84 43.2,84.2 43,84.2 43,84.4 42.8,84.6 42.8,84.8 42.8,85 42.8,85.2 42.6,85.2 42.6,85 42.4,85 
	42.4,85.2 42.4,85.3 42.4,85.5 42.2,85.5 42.2,85.7 42,85.7 42,85.9 41.8,85.9 41.8,86.1 41.6,86.3 41.6,86.5 41.4,86.5 41.2,86.7 
	41,86.7 41,86.9 40.9,86.9 40.7,87.1 40.5,87.3 40.3,87.3 40.1,87.3 40.1,87.5 39.9,87.7 39.7,87.8 39.7,88 39.5,88.2 39.5,88.4 
	39.3,88.4 39.3,88.6 39.1,88.6 38.9,88.6 38.9,88.8 38.7,88.8 38.5,88.8 38.5,89 38.4,89 38.2,89.2 38.4,89.2 38.4,89.4 38.5,89.4 
	38.5,89.6 38.5,89.8 38.5,90 38.5,90.2 38.5,90.3 38.4,90.5 38.4,90.7 38.4,90.9 38.5,90.9 38.5,91.1 38.5,91.3 38.7,91.3 
	38.7,91.5 38.5,91.7 38.7,91.7 38.7,91.9 38.5,92.1 38.5,92.3 38.7,92.3 38.5,92.4 38.5,92.6 38.4,92.8 38.2,93 38,93 38,93.2 
	37.8,93.2 37.6,93.4 37.4,93.6 37.2,93.8 37,93.8 36.8,94 36.6,94 36.6,94.2 36.5,94.2 36.5,94.4 36.5,94.6 36.5,94.8 36.6,94.8 
	36.8,94.9 36.8,95.1 36.6,95.1 36.6,95.3 36.5,95.5 36.5,95.7 36.5,95.9 36.2,95.9 36.2,96.1 36,96.3 36,96.5 35.9,96.7 35.9,97.1 
	35.9,97.2 35.7,97.4 35.7,97.6 35.7,97.8 35.5,98 35.5,98.2 35.5,98.4 35.5,98.6 35.5,98.8 35.5,99 35.5,99.2 35.7,99.4 35.7,99.6 
	35.7,99.8 35.9,99.9 35.9,100.1 35.9,100.3 35.9,100.5 35.9,100.7 35.3,101.7 35.1,101.9 34.9,101.9 34.5,102.1 33.8,102.2 
	33.6,102.4 33.2,102.4 33,102.4 33,102.6 32.6,103 31.6,103.8 31.1,104.4 31.1,104.6 30.9,104.7 31.3,105.5 29.9,106.8 29.3,108.4 
	29.9,109.2 30.7,109.7 32,109.9 32.4,110.3 33,109.9 34.1,109.9 34.1,110.5 35.1,110.9 36.6,110.9 37.6,110.9 38.2,111.3 
	38.7,111.3 39.7,111.6 40.7,112.8 40.7,113.4 41,113.8 41,114.1 42.6,115.5 43,115.7 44.1,115.5 44.3,116.1 45.1,116.2 45.5,117.2 
	45.5,118.2 45.7,118.8 45.3,119.5 43.9,120.1 44.1,121.4 45.1,121.8 46,122.4 46.6,123.7 47.6,124.1 47.8,124.5 48.7,124.7 
	49.7,125.5 51,125.8 52.2,126.6 52.8,126.6 52.8,127.2 53.9,127.4 53.9,128 54.9,128.4 55.3,128.7 56,128.9 56,129.1 56,129.5 
	56,129.7 56.2,130.3 56.6,130.3 56.6,130.8 56.8,131 57.2,131.4 57.8,131.6 58,132 58.1,132 58.3,132.4 58.7,132.6 59.1,133.1 
	59.9,133.1 60.5,133.5 61,134.1 60.8,134.7 60.8,134.9 60.5,134.9 60.2,135.3 59.9,136 59.3,136.6 59.7,136.6 59.7,137.8 
	60.5,138.1 60.8,138.9 61.8,139.1 62,140.1 62.8,140.1 62.6,140.8 61.6,141.6 61.4,142.2 61.6,142.2 62.6,141.8 63.1,142.9 
	63.7,142.9 64.5,143.3 65.1,143.1 66.8,143.7 67.2,144.9 67.6,145 68.1,144.9 68.7,145.6 69.5,145.4 70,146.4 70,146.6 70.8,146.4 
	71.6,147 71.6,147.4 72.3,147.7 72.5,148.3 72.9,148.7 72.7,149.5 72.9,149.5 73.1,149.3 73.5,149.6 72.7,151.6 72.9,152.3 
	72.9,153.1 73.7,154.6 74.7,155.4 75,155.8 75.4,156.6 75.6,156.6 75.8,156.8 75.8,157.7 76.8,158.5 77,159.2 77.5,159.6 
	78.7,159.4 79.5,160.4 79.5,161 79.5,161.2 80.4,161.2 80.6,162.1 80.4,162.9 80.6,163.9 81,163.9 81.4,164.2 81.8,164.6 
	82.7,164.6 82.9,164.2 83.1,164.4 84.1,164.4 84.1,165.6 84.6,166.5 85.4,166.2 85.6,166.4 85.6,166.7 86,166.9 86.6,167.5 
	88.5,167.5 88.9,167.9 88.9,168.5 89.4,168.6 89.6,168.6 90.6,168.1 91,167.3 91.9,167.3 92.3,166.7 93.1,166.5 93.8,165.4 94,165 
	94.4,165 95,164.6 95.4,165.2 95.4,165.6 95.6,165.8 97.7,165.8 98.3,165.6 98.7,166 99.2,166.2 99.2,166.5 100,166.5 101.3,167.9 
	101.9,167.7 101.9,167.1 102.9,167.1 103.3,166.2 104,165.8 104.4,165.2 104.6,164.6 105,164.1 105,163.3 105.4,162.9 105.6,162.9 
	105.9,163.3 106.1,163.1 106.5,163.1 106.7,163.5 106.9,163.3 107.1,163.3 108.4,163.9 108.8,164.4 109,164.4 109.4,164.2 
	109.6,164.4 110,164.6 109.8,165.2 109.8,167.5 110.4,167.7 111.3,167.7 112.1,168.3 111.9,169.2 113.1,169.8 113.6,171 
	114.8,171.3 115.2,172.1 115.6,172.7 115.9,173.4 116.9,173.4 119.8,174.8 120.9,174.8 121.3,177.3 120.9,178.4 121.9,178.4 
	122.7,178.1 123.6,178.1 124,177.5 124.6,178.6 125.3,179 125.2,180 125.3,180.2 125.7,179 126.5,178.1 126.7,177.5 126.9,177.3 
	127.3,177.1 127.8,177.1 128.4,176.7 128.8,176.5 129.2,176.1 129.6,175.9 130,175.8 131.5,175.8 133.2,176.7 135.3,177.7 
	135.7,177.1 137.6,176.9 138,176.3 138.8,175.8 139.2,175.2 139.4,175.2 139.6,175.2 139.6,175.6 139.9,175.8 140.1,176.1 
	141.1,177.1 141.3,178.4 143,178.6 143.4,179.4 144.9,179.8 144.9,178.8 144.9,178.2 147.1,176.9 147.2,176.7 148,176.3 
	152.2,175.9 152.8,175.9 153.6,175.8 155.1,175.2 156.8,174 157,174.2 159.3,175.8 164.1,175.9 166.2,173.8 171.1,169 176.6,163.1 
	190.6,162.5 199.3,162.1 "/>
</svg>
